<?xml version="1.0" standalone="no"?>
<!DOCTYPE svg PUBLIC "-//W3C//DTD SVG 1.1//EN" "http://www.w3.org/Graphics/SVG/1.1/DTD/svg11.dtd" >
<svg xmlns="http://www.w3.org/2000/svg">
<metadata></metadata>
<defs>
<font id="Korinna" horiz-adv-x="1024" >
<font-face units-per-em="2048" ascent="1638" descent="-410" />
<missing-glyph horiz-adv-x="592" />
<glyph horiz-adv-x="2048" />
<glyph horiz-adv-x="2048" />
<glyph unicode="&#xd;" horiz-adv-x="592" />
<glyph unicode=" "  horiz-adv-x="592" />
<glyph unicode="&#x09;" horiz-adv-x="592" />
<glyph unicode="&#xa0;" horiz-adv-x="592" />
<glyph unicode="!" horiz-adv-x="616" d="M172 1294q0 86 39.5 128t120.5 42q72 0 110.5 -42t38.5 -122q0 -20 -2 -50.5t-6 -67.5l-82 -783h-117l-92 787q-6 42 -8 66t-2 42zM174 129q0 67 45.5 112.5t112.5 45.5q65 0 111 -46.5t46 -111.5t-46 -111.5t-111 -46.5q-66 0 -112 46t-46 112z" />
<glyph unicode="&#x22;" horiz-adv-x="694" d="M84 1354q0 52 24.5 80t69.5 28q47 0 71.5 -27.5t24.5 -80.5q0 -16 -0.5 -24.5t-1.5 -15.5l-73 -458h-39l-74 459q-1 7 -1.5 15.5t-0.5 23.5zM420 1354q0 51 25.5 79.5t70.5 28.5t70.5 -28t25.5 -78q0 -13 -3 -36q-1 -4 -1 -5l-73 -459h-39l-74 458q-1 8 -1.5 16.5 t-0.5 23.5z" />
<glyph unicode="#" horiz-adv-x="1575" d="M70 428l59 168h301l92 262h-319l61 166h318l155 436h183l-156 -436h268l156 436h182l-156 -436h291l-59 -166h-291l-92 -262h307l-59 -168h-307l-154 -434h-184l155 434h-268l-154 -434h-184l156 434h-301zM608 594h275l94 264h-275z" />
<glyph unicode="$" horiz-adv-x="1186" d="M111 975q0 148 109.5 241.5t301.5 106.5v242h152v-240q62 0 136.5 -9t174.5 -28v-272h-111q-15 78 -84.5 121t-181.5 43q-103 0 -165 -43t-62 -113q0 -48 31.5 -76t122.5 -53l221 -59q166 -46 240.5 -125t74.5 -207q0 -159 -101.5 -253t-295.5 -114v-280h-152v276 q-92 0 -190.5 21t-210.5 65v264h121q33 -99 109.5 -144.5t211.5 -45.5q110 0 174 43.5t64 118.5q0 54 -37.5 92.5t-110.5 58.5l-291 80q-120 34 -185.5 109.5t-65.5 179.5z" />
<glyph unicode="%" horiz-adv-x="1597" d="M82 1094q0 154 90 247t240 93q65 0 114.5 -16.5t102.5 -55.5l24 -18q106 -78 187 -78q97 0 199 55t153 137h158l-924 -1483h-158l772 1237q-52 -31 -102 -47t-96 -16q-26 0 -52 4t-55 12q1 -9 3.5 -40t2.5 -50q0 -139 -92 -229t-237 -90q-151 0 -240.5 92t-89.5 246z M276 1094q0 -105 34.5 -157t103.5 -52t101 50.5t32 158.5t-32.5 159.5t-100.5 51.5q-69 0 -103.5 -52.5t-34.5 -158.5zM856 328q0 152 91 245t241 93t239 -91.5t89 -246.5t-89.5 -247.5t-238.5 -92.5q-151 0 -241.5 93t-90.5 247zM1051 328q0 -105 35 -158t104 -53 q68 0 99.5 50.5t31.5 160.5q0 109 -31.5 159t-99.5 50q-70 0 -104.5 -52.5t-34.5 -156.5z" />
<glyph unicode="&#x26;" horiz-adv-x="1579" d="M111 430q0 126 71.5 216t216.5 147q-105 52 -159 126t-54 168q0 170 144.5 274.5t386.5 104.5q89 0 201 -21t258 -67v-307h-121q-39 104 -121 161.5t-193 57.5q-114 0 -183 -56.5t-69 -150.5q0 -102 85 -158.5t239 -56.5q7 0 22 1t23 1v-165q-8 0 -23 1t-22 1 q-181 0 -279 -69.5t-98 -197.5q0 -114 99.5 -198t236.5 -84q148 0 239 61t91 160q0 57 -31.5 85t-99.5 32v135h565v-137h-16q-103 0 -129 -125q-13 -59 -25 -90q-58 -153 -214.5 -234.5t-389.5 -81.5q-296 0 -473.5 128.5t-177.5 338.5z" />
<glyph unicode="'" horiz-adv-x="358" d="M84 1354q0 52 24.5 80t69.5 28q47 0 71.5 -27.5t24.5 -80.5q0 -16 -0.5 -24.5t-1.5 -15.5l-73 -458h-39l-74 459q-1 7 -1.5 15.5t-0.5 23.5z" />
<glyph unicode="(" horiz-adv-x="692" d="M123 496q0 238 108.5 480t325.5 488l102 -98q-133 -180 -195.5 -390t-62.5 -468q0 -254 63 -461.5t195 -394.5l-106 -103q-227 275 -328.5 499.5t-101.5 447.5z" />
<glyph unicode=")" horiz-adv-x="692" d="M45 -352q133 179 195.5 387t62.5 471q0 256 -62.5 464.5t-193.5 393.5l107 100q225 -272 326.5 -497t101.5 -449q0 -240 -108 -481.5t-324 -487.5z" />
<glyph unicode="*" d="M129 887q0 37 32 65t76 31q11 1 31 2q131 9 211 59q-93 52 -212 59q-14 0 -22 1q-50 4 -83 31.5t-33 66.5q0 41 28 74t64 33q57 0 128.5 -98t148.5 -140v6q0 84 -42 176t-42 119q0 42 27 67t71 25q45 0 71.5 -25t26.5 -67q0 -29 -41 -118.5t-41 -170.5v-16q76 48 148 145 t125 97q33 0 63.5 -35t30.5 -74q0 -37 -32 -65t-76 -31q-11 -1 -32 -2q-135 -9 -210 -60q93 -51 206 -58q14 0 21 -1q58 -5 90.5 -31t32.5 -67t-29 -74t-65 -33q-56 0 -126 98.5t-149 139.5v-6q0 -85 42 -176.5t42 -118.5q0 -42 -27.5 -67t-72.5 -25t-70.5 24.5t-25.5 67.5 q0 28 40 118t40 171v16q-76 -48 -148 -145t-125 -97q-33 0 -62.5 35t-29.5 74z" />
<glyph unicode="+" horiz-adv-x="1706" d="M254 528v166h514v527h170v-527h514v-166h-514v-528h-170v528h-514z" />
<glyph unicode="," horiz-adv-x="592" d="M117 127q0 69 44.5 112.5t114.5 43.5q79 0 124.5 -53t45.5 -144q0 -92 -53 -175.5t-188 -195.5l-62 66q76 63 110 111t38 95q-5 0 -11.5 -0.5t-19.5 -0.5q-68 0 -105.5 37t-37.5 104z" />
<glyph unicode="-" horiz-adv-x="707" d="M88 410v217h528v-217h-528z" />
<glyph unicode="." horiz-adv-x="592" d="M113 129q0 69 46.5 115.5t114.5 46.5q70 0 116 -46.5t46 -115.5t-46 -115.5t-116 -46.5q-68 0 -114.5 47t-46.5 115z" />
<glyph unicode="/" horiz-adv-x="569" d="M-106 -190l604 1636h131l-609 -1636h-126z" />
<glyph unicode="0" horiz-adv-x="1186" d="M63 715q0 327 143.5 529t377.5 202q141 0 234 -52t171 -173q64 -101 95.5 -226t31.5 -278q0 -335 -145 -537.5t-383 -202.5t-381.5 200.5t-143.5 537.5zM348 725q0 -288 63 -430.5t191 -142.5q116 0 172.5 138.5t56.5 422.5q0 283 -60.5 424t-182.5 141 q-117 0 -178.5 -141t-61.5 -412z" />
<glyph unicode="1" horiz-adv-x="1186" d="M219 1129v108q137 32 221.5 76.5t130.5 107.5h185v-1210q0 -79 29 -98t135 -27v-86h-625v86q125 15 154.5 37t29.5 92v975q-66 -26 -131 -41.5t-129 -19.5z" />
<glyph unicode="2" horiz-adv-x="1186" d="M53 0v6q0 147 75.5 278.5t227.5 252.5q42 32 141.5 97t149.5 105q78 63 112 125t34 144q0 117 -79.5 190.5t-207.5 73.5q-120 0 -196.5 -59t-102.5 -171h-115v275q104 65 217 97t238 32q239 0 381.5 -122t142.5 -325q0 -141 -69 -242t-259 -216q-24 -15 -73 -44 q-286 -171 -363 -304h508q103 0 136 24.5t44 97.5h90v-315h-1032z" />
<glyph unicode="3" horiz-adv-x="1186" d="M49 18v267h107q13 -70 73 -102.5t174 -32.5q175 0 279 88.5t104 238.5q0 129 -93.5 194.5t-274.5 65.5q-8 0 -27 -1t-29 -1v166h91q132 0 205 54t73 149q0 82 -63 129t-174 47q-108 0 -177 -38t-94 -112h-106v216q106 50 205.5 75t191.5 25q228 0 360 -90.5t132 -245.5 q0 -101 -61.5 -170.5t-184.5 -108.5q155 -46 233 -136t78 -222q0 -217 -192.5 -357.5t-501.5 -140.5q-74 0 -154.5 11t-173.5 32z" />
<glyph unicode="4" horiz-adv-x="1186" d="M39 332v174l704 915h201v-907h195v-182h-195v-150q0 -59 16.5 -75.5t71.5 -20.5v-86h-434v86q53 3 70.5 20t17.5 76v150h-647zM244 508h452l6 610z" />
<glyph unicode="5" horiz-adv-x="1186" d="M72 18v273h90q17 -66 75 -97.5t162 -31.5q180 0 298 107t118 270q0 130 -79 212.5t-201 82.5q-95 0 -171 -40.5t-116 -111.5l-129 33l35 706h845l-71 -196h-596l-15 -289q56 39 129.5 59.5t159.5 20.5q211 0 346 -130t135 -335q0 -262 -195.5 -419t-522.5 -157 q-75 0 -148 11t-149 32z" />
<glyph unicode="6" horiz-adv-x="1186" d="M66 662q0 362 173 573t472 211q68 0 143.5 -12.5t163.5 -38.5v-238h-80q-12 58 -72 90.5t-153 32.5q-167 0 -271.5 -134t-111.5 -359q74 75 157 112t179 37q199 0 324.5 -130t125.5 -341q0 -216 -138 -353t-360 -137q-255 0 -403.5 184t-148.5 503zM346 451 q0 -141 67.5 -221t184.5 -80q121 0 190.5 78.5t69.5 215.5q0 147 -67 232.5t-183 85.5q-124 0 -193 -82.5t-69 -228.5z" />
<glyph unicode="7" horiz-adv-x="1186" d="M111 1112v309h989v-5q4 -32 4 -46q0 -113 -125 -344q-62 -116 -92 -182q-107 -235 -154 -429t-47 -392v-23h-293v31q0 185 52 367t157 366q59 104 165.5 256.5t110.5 204.5h-526q-78 0 -107 -23t-40 -90h-94z" />
<glyph unicode="8" horiz-adv-x="1186" d="M63 410q0 133 67 233t192 156q-92 33 -143.5 107.5t-51.5 172.5q0 168 126 267.5t343 99.5q221 0 344 -94t123 -262q0 -102 -48 -173t-145 -114q123 -48 186.5 -146t63.5 -241q0 -206 -143 -323.5t-397 -117.5q-238 0 -377.5 118t-139.5 317zM336 426q0 -138 63.5 -209.5 t186.5 -71.5q128 0 195 70.5t67 206.5q0 141 -66 214t-194 73q-118 0 -185 -75.5t-67 -207.5zM381 1083q0 -94 59.5 -149t161.5 -55q91 0 149 56.5t58 143.5q0 90 -57.5 145.5t-153.5 55.5t-156.5 -55t-60.5 -142z" />
<glyph unicode="9" horiz-adv-x="1186" d="M59 942q0 226 137 365t363 139q259 0 405 -180t146 -498q0 -367 -178 -580t-481 -213q-67 0 -139.5 12t-153.5 36v241h80q27 -61 82 -92t137 -31q176 0 280.5 134t105.5 361q-63 -73 -142.5 -112t-170.5 -39q-211 0 -341 127t-130 330zM317 971q0 -145 67 -228.5 t181 -83.5q124 0 192 81t68 227q0 142 -66.5 223.5t-183.5 81.5q-119 0 -188.5 -81t-69.5 -220z" />
<glyph unicode=":" horiz-adv-x="606" d="M139 129q0 69 47 116.5t115 47.5q69 0 115.5 -47.5t46.5 -116.5t-46.5 -115.5t-115.5 -46.5q-68 0 -115 47t-47 115zM139 823q0 69 47 116.5t115 47.5q69 0 115.5 -47t46.5 -117q0 -69 -46.5 -115t-115.5 -46q-68 0 -115 46.5t-47 114.5z" />
<glyph unicode=";" horiz-adv-x="606" d="M147 823q0 69 47 116.5t115 47.5q69 0 116.5 -47.5t47.5 -116.5q0 -68 -47 -114.5t-117 -46.5q-68 0 -115 46.5t-47 114.5zM152 127q0 69 44 112.5t115 43.5q78 0 124 -53t46 -144q0 -92 -53 -175.5t-188 -195.5l-62 66q76 63 109.5 111t37.5 96q-4 -1 -10.5 -1.5 t-19.5 -0.5q-68 0 -105.5 37t-37.5 104z" />
<glyph unicode="&#x3c;" horiz-adv-x="1706" d="M264 530v160l1178 486v-185l-934 -381l934 -381v-182z" />
<glyph unicode="=" horiz-adv-x="1706" d="M254 322v165h1198v-165h-1198zM254 733v168h1198v-168h-1198z" />
<glyph unicode="&#x3e;" horiz-adv-x="1706" d="M264 47v182l934 381l-934 381v185l1178 -486v-160z" />
<glyph unicode="?" horiz-adv-x="1124" d="M61 1087v326q111 26 201 38.5t166 12.5q270 0 435 -145t165 -375q0 -200 -132 -316t-359 -116h-37v-106h-174v350h47q193 0 291 61.5t98 183.5q0 120 -92 197.5t-236 77.5q-107 0 -171.5 -45.5t-94.5 -143.5h-107zM256 131q0 68 46 114t114 46q66 0 111.5 -46.5 t45.5 -113.5t-45.5 -113.5t-111.5 -46.5q-68 0 -114 46t-46 114z" />
<glyph unicode="@" horiz-adv-x="2019" d="M139 537q0 203 86 381t250 313q135 111 297.5 168t345.5 57q348 0 557 -188.5t209 -501.5q0 -159 -59 -297.5t-168 -237.5q-62 -54 -129 -82t-133 -28q-98 0 -152.5 52.5t-60.5 152.5q-64 -105 -137.5 -154t-165.5 -49q-134 0 -212.5 92t-78.5 248q0 112 49 219t141 195 q68 65 147.5 99t161.5 34q90 0 145.5 -47.5t72.5 -139.5l51 170h172l-172 -616l-2 -6q-15 -59 -15 -90q0 -49 22 -76t60 -27q34 0 84 22t92 56q110 88 169 222t59 296q0 279 -191 450t-504 171q-173 0 -328.5 -65t-273.5 -185q-122 -125 -183.5 -286t-61.5 -357 q0 -172 59.5 -306.5t179.5 -234.5q106 -88 247 -135t302 -47q166 0 321 51.5t304 157.5l37 -47q-148 -111 -315 -167.5t-347 -56.5q-188 0 -347 46.5t-275 134.5q-151 113 -230.5 277t-79.5 362zM772 367q0 -83 36.5 -133t94.5 -50q62 0 115.5 41.5t107.5 132.5 q56 96 89.5 210t33.5 204q0 83 -37.5 132.5t-99.5 49.5q-64 0 -117 -45t-106 -147q-57 -107 -87 -209.5t-30 -185.5z" />
<glyph unicode="A" horiz-adv-x="1352" d="M-43 0v90q32 5 54.5 28.5t41.5 74.5l477 1239h287l469 -1233l6 -15q27 -74 82 -94v-90h-440v90q33 2 52.5 15.5t19.5 35.5q0 6 -2.5 16t-6.5 20l-127 345h-481l-110 -293q-9 -22 -14 -42t-5 -31q0 -30 19 -46.5t55 -19.5v-90h-377zM451 711h350l-174 469z" />
<glyph unicode="B" horiz-adv-x="1413" d="M70 0v88q48 4 66 24.5t18 75.5v1055q0 56 -18 76t-66 24v89h706q226 0 342.5 -87t116.5 -255q0 -108 -60.5 -185.5t-179.5 -120.5q163 -42 246.5 -141t83.5 -250q0 -107 -52 -197t-143 -139q-58 -31 -146 -44t-284 -13h-151h-479zM432 172h264q188 0 274.5 61t86.5 193 q0 131 -87 201.5t-247 70.5h-291v-526zM432 874h299q128 0 189 44t61 137q0 106 -65.5 155.5t-210.5 49.5h-273v-386z" />
<glyph unicode="C" horiz-adv-x="1436" d="M66 745q0 326 209 523.5t556 197.5q171 0 312 -53.5t270 -167.5l-264 -266l-80 57q11 28 16 46t5 30q0 66 -83 113t-206 47q-205 0 -326 -136.5t-121 -369.5q0 -274 167 -445t435 -171q114 0 179 38t77 113h101v-305q-113 -18 -206 -26.5t-173 -8.5q-400 0 -634 213 t-234 571z" />
<glyph unicode="D" horiz-adv-x="1518" d="M70 0v88q48 6 65 23.5t17 76.5v1055q0 60 -17.5 77.5t-64.5 23.5v88h452q228 0 358 -31t238 -101q158 -102 248 -272t90 -366q0 -174 -71 -317.5t-199 -227.5q-95 -63 -214.5 -90t-330.5 -27h-571zM434 184h207q255 0 391.5 126t136.5 360q0 270 -175 425.5t-480 155.5 h-53h-27v-1067z" />
<glyph unicode="E" horiz-adv-x="1305" d="M70 0v88q48 4 66 24.5t18 75.5v1055q0 56 -18 76t-66 24v89h1144v-283h-88q-18 61 -49.5 83.5t-136.5 22.5h-510v-362h373q110 0 143 20t45 74h82v-354h-82q-8 55 -34.5 74.5t-100.5 19.5h-426v-553h520q118 0 161 27t60 98h97v-299h-1198z" />
<glyph unicode="F" horiz-adv-x="1247" d="M70 0v88q48 4 66 24.5t18 75.5v1055q0 56 -18 76t-66 24v89h1183v-283h-88q-18 61 -50 83.5t-136 22.5h-549v-381h354q111 0 144 20.5t45 74.5h82v-357h-82q-8 55 -34.5 75t-102.5 20h-406v-519q0 -55 18 -75.5t66 -24.5v-88h-444z" />
<glyph unicode="G" horiz-adv-x="1540" d="M66 750q0 317 200.5 516.5t519.5 199.5q193 0 342.5 -52.5t284.5 -166.5l-264 -266l-80 57q11 28 16 46t5 30q0 66 -83 113t-206 47q-205 0 -326 -136.5t-121 -369.5q0 -281 174 -448.5t467 -167.5q35 0 114 3q11 0 17 1v456q0 56 -18 76t-66 25v88h422v-88 q-44 -8 -59.5 -27t-15.5 -74v-432q0 -66 13.5 -80t61.5 -22v-78q-196 -18 -306.5 -25.5t-170.5 -7.5q-218 0 -366 39.5t-263 126.5q-140 106 -216 267t-76 350z" />
<glyph unicode="H" horiz-adv-x="1532" d="M70 0v88q48 4 66 24.5t18 75.5v1055q0 56 -18 76t-66 24v89h446v-88q-44 -5 -63 -27t-19 -70v-370h666v366q0 56 -18 76t-66 24v89h446v-88q-45 -5 -63.5 -26.5t-18.5 -70.5v-1063q0 -49 19 -70.5t63 -25.5v-88h-446v88q48 4 66 24.5t18 75.5v519h-666v-523 q0 -47 18.5 -69t63.5 -27v-88h-446z" />
<glyph unicode="I" horiz-adv-x="584" d="M70 0v88q48 4 66 24.5t18 75.5v1055q0 56 -18 76t-66 24v89h446v-88q-45 -5 -63.5 -26.5t-18.5 -70.5v-1063q0 -48 18.5 -69.5t63.5 -26.5v-88h-446z" />
<glyph unicode="J" horiz-adv-x="1128" d="M-35 346l262 201l72 -72q-32 -30 -45.5 -59.5t-13.5 -67.5q0 -74 65.5 -134t153.5 -60q110 0 164.5 72.5t54.5 219.5v797q0 57 -17.5 76.5t-64.5 23.5v89h444v-88q-44 -5 -61.5 -26t-17.5 -71v-786q0 -235 -128.5 -366.5t-357.5 -131.5q-183 0 -311 96.5t-199 286.5z" />
<glyph unicode="K" horiz-adv-x="1464" d="M70 0v88q48 4 66 24.5t18 75.5v1055q0 56 -18 76t-66 24v89h440v-88q-44 -5 -62 -26t-18 -71v-430l438 440q17 17 23 28t6 22q0 17 -15 26.5t-40 9.5h-15h-8v89h518v-89q-49 0 -92.5 -20t-89.5 -63l-326 -324l506 -757l6 -9q56 -78 101 -82v-88h-473v88q4 -1 9 -1.5 t13 -0.5q25 0 38 8.5t13 24.5q0 10 -3.5 18.5t-14.5 24.5l-389 590l-207 -207v-361q0 -49 17.5 -70t62.5 -26v-88h-438z" />
<glyph unicode="L" horiz-adv-x="1190" d="M70 0v88q48 4 66 24.5t18 75.5v1055q0 56 -18 76t-66 24v89h452v-89q-43 0 -66.5 -26t-23.5 -74v-1069h410q122 0 160 30t61 120h96v-324h-1089z" />
<glyph unicode="M" horiz-adv-x="1659" d="M-23 0v88q79 18 101 144q1 7 2 12l166 967q3 15 4.5 35t1.5 42q0 31 -16.5 44.5t-55.5 13.5v86h395l236 -732l279 732h393v-86q-39 -3 -54.5 -18.5t-15.5 -53.5q0 -18 1 -29.5t3 -21.5l152 -1019q9 -67 29 -89.5t63 -26.5v-88h-424v88q42 5 59 21.5t17 52.5q0 13 -0.5 21 t-1.5 15l-142 916l-305 -792h-188l-258 792l-144 -891q-3 -15 -4.5 -33.5t-1.5 -37.5q0 -30 14.5 -44t51.5 -20v-88h-357z" />
<glyph unicode="N" horiz-adv-x="1456" d="M70 0v88h6q48 0 66 21.5t18 85.5v1093q0 22 -21.5 37.5t-58.5 20.5v86h401l617 -621v446q0 49 -17 66.5t-65 22.5v86h356v-86q-42 -2 -60 -25t-18 -78v-1046q0 -70 16.5 -87.5t61.5 -21.5v-88h-362v88q48 3 66 23t18 75v248l-727 723v-952q0 -66 17 -90.5t62 -26.5v-88 h-376z" />
<glyph unicode="O" horiz-adv-x="1663" d="M68 709q0 327 218 541t554 214q331 0 543 -210t212 -531q0 -336 -212 -546t-556 -210q-341 0 -550 206t-209 536zM365 713q0 -247 132 -404t334 -157q214 0 340.5 153t126.5 412q0 266 -121.5 415.5t-338.5 149.5q-211 0 -342 -157t-131 -412z" />
<glyph unicode="P" horiz-adv-x="1237" d="M70 0v88q48 4 66 24.5t18 75.5v1055q0 56 -18 76t-66 24v89h608q148 0 220.5 -16.5t129.5 -53.5q86 -55 132 -142.5t46 -193.5q0 -227 -174 -369.5t-598 -250.5v-199q0 -65 18 -90t64 -29v-88h-446zM432 584q277 98 389.5 194.5t112.5 231.5t-79.5 195.5t-262.5 60.5 h-160v-682z" />
<glyph unicode="Q" horiz-adv-x="1688" d="M68 711q0 327 218.5 540t553.5 213q331 0 543 -210t212 -531q0 -145 -42 -264.5t-132 -231.5q20 -18 41.5 -26t48.5 -8q39 0 57 17.5t23 61.5h82v-278q-40 -14 -78 -20.5t-75 -6.5q-82 0 -144.5 25t-122.5 80q-97 -55 -198.5 -80t-227.5 -25q-162 0 -281.5 39.5 t-219.5 124.5q-125 107 -191.5 256t-66.5 324zM365 713q0 -246 132 -402.5t334 -156.5q72 0 132.5 17t117.5 54q-57 63 -126 98t-134 35q-28 0 -61.5 -7.5t-75.5 -24.5l-61 127q64 39 129.5 58t134.5 19q82 0 157 -32.5t177 -114.5q39 78 58 159.5t19 174.5 q0 266 -121.5 415.5t-338.5 149.5q-212 0 -342.5 -156.5t-130.5 -412.5z" />
<glyph unicode="R" horiz-adv-x="1352" d="M70 0v88q48 4 66 24.5t18 75.5v1055q0 56 -18 76t-66 24v89h669q233 0 364.5 -104t131.5 -284q0 -146 -85 -249.5t-228 -130.5l288 -482q31 -50 60 -73t69 -29v-80h-342l-358 625h-205v-389q0 -94 17.5 -118.5t64.5 -29.5v-88h-446zM432 793h150q234 0 308.5 53t74.5 182 q0 109 -77.5 170.5t-215.5 61.5h-240v-467z" />
<glyph unicode="S" horiz-adv-x="1352" d="M20 338l297 203l60 -66q-24 -29 -34.5 -53.5t-10.5 -50.5q0 -92 87.5 -152.5t227.5 -60.5q153 0 244.5 64t91.5 169q0 57 -30 101t-91 77q-40 21 -181 54q-100 23 -159 39q-231 62 -326.5 155t-95.5 246q0 174 150 288.5t385 114.5q199 0 346 -67.5t254 -208.5l-229 -213 l-62 55q9 22 12.5 36t4.5 28q0 77 -91.5 131.5t-226.5 54.5q-125 0 -198.5 -48.5t-73.5 -129.5q0 -123 296 -191q77 -18 119 -28q251 -64 363.5 -170t112.5 -277q0 -214 -165.5 -345.5t-443.5 -131.5q-223 0 -371.5 88.5t-261.5 288.5z" />
<glyph unicode="T" horiz-adv-x="1237" d="M29 1135v297h1181v-297h-82q-6 58 -40 86t-99 28h-229v-1061q0 -49 19.5 -73t61.5 -27l1 -88h-445v88q47 4 64.5 23.5t17.5 76.5v1061h-229q-66 0 -99.5 -27.5t-39.5 -86.5h-82z" />
<glyph unicode="U" horiz-adv-x="1446" d="M68 616q0 109 29.5 218t105.5 262q22 45 61 112q49 84 49 113q0 14 -15 20.5t-58 10.5v80h424v-80q-67 -29 -116.5 -85t-101.5 -167t-78 -219t-26 -215q0 -134 42.5 -234.5t125.5 -163.5q53 -40 126.5 -56.5t250.5 -16.5h145v1048q0 57 -17 76.5t-65 23.5v89h445v-88 q-43 -4 -63.5 -27.5t-20.5 -69.5v-1003q0 -96 17.5 -123.5t65.5 -32.5l1 -88h-568q-219 0 -313.5 19t-169.5 63q-138 81 -207 215t-69 319z" />
<glyph unicode="V" horiz-adv-x="1237" d="M-47 1346v86h453v-86q-33 0 -51.5 -11t-18.5 -28q0 -12 4 -30.5t10 -39.5l303 -918l310 902q8 24 12 43.5t4 31.5q0 22 -16 36t-43 14h-5v86h369v-86q-40 -8 -61 -28.5t-43 -86.5l-424 -1231h-283l-418 1245q-15 47 -40 71.5t-62 29.5z" />
<glyph unicode="W" horiz-adv-x="1821" d="M-27 1348v84h414v-84q-36 -3 -54 -17.5t-18 -42.5q0 -13 2.5 -26t6.5 -25l260 -870l225 759l-41 148q-8 31 -20.5 43.5t-59.5 30.5v84h422v-84q-47 -11 -61.5 -23t-14.5 -37q0 -9 6 -31q2 -7 2 -10l256 -874l263 852q5 15 7.5 30t2.5 29q0 26 -17 41.5t-51 22.5v84h340 v-84q-59 -18 -86 -106q-1 -5 -2 -7l-379 -1235h-219l-250 799l-250 -799h-219l-379 1241q-16 56 -34 77.5t-52 29.5z" />
<glyph unicode="X" horiz-adv-x="1352" d="M-39 0v86q75 6 169 141l3 4l375 529l-322 473q-41 60 -74.5 83.5t-80.5 31.5v84h506v-84q-29 0 -44.5 -8.5t-15.5 -24.5q0 -9 4 -20t13 -26l213 -327l202 295q16 22 22.5 38t6.5 30q0 17 -21 28.5t-59 14.5v84h461v-84q-83 -15 -162 -125l-2 -2l-315 -441l401 -606l1 -1 q55 -81 118 -87v-86h-502l1 86q37 2 53 12t16 33q0 9 -4 21t-11 25l-272 411l-283 -400q-9 -14 -13.5 -27.5t-4.5 -25.5q0 -25 17.5 -37t52.5 -12h8v-86h-457z" />
<glyph unicode="Y" horiz-adv-x="1171" d="M-37 1348v84h440v-84q-29 -2 -45 -11.5t-16 -25.5q0 -13 5 -27t18 -35l270 -463l250 455q8 17 12 30t4 23q0 26 -18.5 40t-51.5 14h-12v84h410v-84q-39 -4 -69 -29t-58 -76l-367 -665v-394q0 -47 20.5 -70t63.5 -26v-88h-434v88q48 4 66 24.5t18 75.5v381l-422 711 q-19 33 -37.5 47t-46.5 21z" />
<glyph unicode="Z" horiz-adv-x="1237" d="M29 0v180l757 1080h-354q-116 0 -167.5 -38.5t-51.5 -125.5v-6h-98v342h1013v-160l-763 -1092h399q143 0 206.5 50.5t84.5 172.5h104v-403h-1130z" />
<glyph unicode="[" horiz-adv-x="682" d="M152 -420v1852h411v-127h-55q-82 0 -104.5 -17t-22.5 -106v-1409q0 -37 25.5 -51.5t97.5 -14.5h39h20v-127h-411z" />
<glyph unicode="\" horiz-adv-x="569" d="M-59 1446h129l606 -1636h-127z" />
<glyph unicode="]" horiz-adv-x="682" d="M119 -293h55q81 0 104 17.5t23 107.5v1409q0 36 -24.5 50t-98.5 14h-59v127h411v-1852h-411v127z" />
<glyph unicode="^" horiz-adv-x="2048" d="M412 897l503 565h215l502 -565h-104l-506 397l-506 -397h-104z" />
<glyph unicode="_" d="M0 -311h1024v-172h-1024v172z" />
<glyph unicode="`" d="M229 1395q0 32 22.5 55t53.5 23q24 0 52 -16.5t55 -45.5l276 -301h-74l-301 184q-48 30 -66 51.5t-18 49.5z" />
<glyph unicode="a" horiz-adv-x="1075" d="M45 285q0 150 137.5 237.5t526.5 165.5q-14 80 -68 118t-154 38q-106 0 -173.5 -29.5t-100.5 -89.5h-82v219q115 28 211 41.5t182 13.5q225 0 322.5 -80t97.5 -268v-491q0 -45 13 -62.5t48 -19.5l1 -78h-297v111q-61 -67 -137.5 -98t-178.5 -31q-156 0 -252 84t-96 219z M311 301q0 -65 41 -104t109 -39q52 0 103 22t128 80v283q-209 -44 -295 -99.5t-86 -142.5z" />
<glyph unicode="b" horiz-adv-x="1171" d="M70 0v72q37 6 51 24.5t14 81.5v12v1100q0 40 -14.5 55t-50.5 15v72h305v-517q71 43 152 64.5t167 21.5q194 0 305 -126t111 -345q0 -236 -163 -383t-433 -147h-444zM389 156q8 0 24.5 -1t24.5 -1q195 0 300.5 91.5t105.5 260.5q0 149 -61.5 235t-166.5 86q-62 0 -117 -17 t-110 -52v-602z" />
<glyph unicode="c" horiz-adv-x="1014" d="M63 516q0 216 147 349.5t388 133.5q130 0 233 -41t189 -127l-172 -198l-65 54q4 14 6.5 25.5t3.5 20.5q0 49 -51 80t-134 31q-127 0 -202.5 -89t-75.5 -239q0 -167 92 -266.5t248 -99.5q74 0 121 27t69 83h76v-260q-73 -16 -132 -23.5t-114 -7.5q-279 0 -453 154.5 t-174 392.5z" />
<glyph unicode="d" horiz-adv-x="1190" d="M68 422q0 279 178.5 427t515.5 148h53v258q0 69 -14 85t-53 20v72h313v-1287q0 -39 15.5 -56t49.5 -17v-72h-303v94q-58 -62 -137.5 -92.5t-185.5 -30.5q-199 0 -315.5 122.5t-116.5 328.5zM330 442q0 -145 66 -230t177 -85q73 0 137 39.5t103 107.5v568h-27 q-222 0 -339 -102.5t-117 -297.5z" />
<glyph unicode="e" horiz-adv-x="1075" d="M63 498q0 216 137 357.5t345 141.5q203 0 327 -132.5t138 -364.5l-678 -1q4 -166 90 -262t231 -96q97 0 161 38t93 112h74v-242q-92 -40 -178 -59t-180 -19q-262 0 -411 141t-149 386zM348 639h374q-2 92 -46.5 140t-126.5 48q-87 0 -141 -50t-60 -138z" />
<glyph unicode="f" horiz-adv-x="627" d="M41 842v131h106v102q0 218 75 304.5t255 86.5q53 0 103 -9t102 -27v-230h-73q-5 50 -33 78.5t-74 28.5q-55 0 -78 -34.5t-23 -127.5v-172h209v-131h-209v-666q0 -65 13.5 -82.5t52.5 -21.5v-72h-387v71q38 6 52.5 29t14.5 90v652h-106z" />
<glyph unicode="g" horiz-adv-x="1171" d="M35 -244l221 197l59 -49q-15 -19 -22.5 -35.5t-7.5 -32.5q0 -44 72.5 -79.5t168.5 -35.5q137 0 218 56t81 151q0 19 -3.5 51.5t-10.5 75.5q-57 -44 -137.5 -66t-181.5 -22q-195 0 -308.5 123.5t-113.5 333.5q0 257 165 403t459 146h416v-71q-33 -6 -48 -22.5t-15 -48.5 v-647q0 -62 18 -156.5t18 -125.5q0 -155 -155 -254t-400 -99q-160 0 -279.5 50.5t-213.5 156.5zM336 465q0 -152 60 -238t163 -86q59 0 121 22t111 60v592q-9 0 -25 1t-25 1q-195 0 -300 -91.5t-105 -260.5z" />
<glyph unicode="h" horiz-adv-x="1180" d="M70 0v72q37 6 51 24.5t14 81.5v12v1100q0 40 -14.5 55t-50.5 15v72h305v-555q57 60 137 90t184 30q119 0 200.5 -45t121.5 -133q16 -37 23.5 -93t7.5 -181v-90v-285q0 -8 1 -18.5t1 -12.5q0 -32 13 -46t50 -21v-72h-381v71q36 2 50 21t14 92v15v463q0 77 -50.5 123 t-136.5 46q-62 0 -122 -33t-97 -87v-535q0 -69 13.5 -85t49.5 -19l1 -72h-385z" />
<glyph unicode="i" horiz-adv-x="526" d="M70 0v72q37 6 51 24.5t14 81.5v12v635q0 41 -14.5 55.5t-50.5 14.5v78h321v-797q0 -69 13.5 -85t49.5 -19l1 -72h-385zM94 1288q0 75 43 118.5t119 43.5q72 0 117 -46t45 -120q0 -70 -47 -120t-115 -50q-72 0 -117 49t-45 125z" />
<glyph unicode="j" horiz-adv-x="526" d="M-88 -197h76q6 -44 31.5 -68t66.5 -24t63.5 26.5t22.5 74.5q0 22 -15.5 73.5t-15.5 91.5v848q0 40 -14.5 55t-50.5 15v78h321v-1032q0 -200 -88.5 -298t-269.5 -98q-23 0 -50 4t-77 15v239zM100 1288q0 75 43 118.5t119 43.5q72 0 117 -46t45 -120q0 -70 -47 -120 t-115 -50q-72 0 -117 49t-45 125z" />
<glyph unicode="k" horiz-adv-x="1124" d="M70 0v72q37 6 51 24.5t14 81.5v12v1100q0 40 -14.5 55t-50.5 15v72h323v-852l313 249q3 2 8 6q29 23 29 42q0 12 -16.5 20t-44.5 8h-16v68h401v-68q-46 -14 -116 -71q-8 -7 -13 -11l-221 -176l340 -528q14 -21 27.5 -30.5t37.5 -16.5v-72h-415v72h12q19 0 31 8t12 20 q0 9 -5.5 22t-17.5 32l-211 342l-135 -117v-258q0 -22 15.5 -34t45.5 -15l1 -72h-385z" />
<glyph unicode="l" horiz-adv-x="530" d="M70 0v72q37 6 51 24.5t14 81.5v12v1100q0 40 -14.5 55t-50.5 15v72h321v-1256q0 -69 13.5 -85t49.5 -19l1 -72h-385z" />
<glyph unicode="m" horiz-adv-x="1839" d="M70 0v70q37 6 51 24t14 80v12v639q0 40 -14.5 55t-50.5 15v76h305v-99q54 62 136 93.5t187 31.5q96 0 168 -31t133 -98q97 71 178 100t175 29q119 0 202 -45t121 -131q17 -38 24 -97.5t7 -193.5v-51v-311q0 -59 13 -75t52 -23l1 -70h-383v70q35 1 49 20t14 92v15v465 q0 79 -49 124t-135 45q-60 0 -117.5 -28t-101.5 -80v-555q0 -59 12.5 -74.5t52.5 -24.5v-69h-381v69q36 2 50 21t14 92v15v465q0 79 -50 124t-137 45q-64 0 -123.5 -31t-95.5 -85v-541q0 -69 12.5 -84.5t50.5 -19.5l1 -70h-385z" />
<glyph unicode="n" horiz-adv-x="1180" d="M70 0v70q31 4 47 21.5t16 47.5v692q0 41 -13 53.5t-50 14.5v74h303v-96q59 59 141 89.5t182 30.5q186 0 270.5 -96t84.5 -313v-457q0 -27 14.5 -41t48.5 -20v-70h-381v70h4q28 0 44 19t16 52v525q0 74 -49 119.5t-130 45.5q-70 0 -130 -30.5t-97 -85.5v-553q0 -58 13 -73 t50 -19l1 -70h-385z" />
<glyph unicode="o" horiz-adv-x="1176" d="M61 489q0 226 144.5 367t376.5 141q242 0 386 -139t144 -369q0 -227 -147.5 -372.5t-380.5 -145.5t-378 145t-145 373zM336 494q0 -172 67 -262.5t193 -90.5q118 0 180 94.5t62 274.5q0 150 -67.5 237t-184.5 87t-183.5 -90.5t-66.5 -249.5z" />
<glyph unicode="p" horiz-adv-x="1190" d="M57 -451l1 72q40 5 54.5 25t14.5 94v1059q0 63 -14.5 80.5t-55.5 17.5v76h308v-96q79 63 159 92.5t172 29.5q196 0 310 -124t114 -334q0 -275 -180 -421.5t-518 -146.5h-47v-233v-68q0 -22 17 -35.5t48 -15.5v-72h-383zM375 129h6q234 0 354.5 101t120.5 296 q0 143 -64.5 226.5t-175.5 83.5q-73 0 -134 -35.5t-107 -104.5v-567z" />
<glyph unicode="q" horiz-adv-x="1171" d="M70 438q0 243 167 389t453 146h420v-72q-37 -6 -51.5 -24.5t-14.5 -81.5v-13v-1085q0 -39 15 -57.5t47 -18.5h4v-72h-369v72q38 0 52 18.5t14 86.5v26v299q-72 -41 -154.5 -62.5t-171.5 -21.5q-192 0 -301.5 125.5t-109.5 345.5zM336 465q0 -155 62.5 -239.5t176.5 -84.5 q54 0 108.5 18t107.5 52v604q-9 0 -25 1t-25 1q-195 0 -300 -91.5t-105 -260.5z" />
<glyph unicode="r" horiz-adv-x="725" d="M70 0v70q37 6 51 24.5t14 81.5v12v639q0 39 -14.5 53.5t-50.5 14.5v78h305v-111q43 69 102 103t135 34q28 0 46 -1t36 -3v-276h-63q-6 50 -29.5 72t-69.5 22q-60 0 -100.5 -51t-40.5 -131v-457q0 -69 12.5 -84.5t50.5 -19.5l1 -70h-385z" />
<glyph unicode="s" horiz-adv-x="1014" d="M33 121l155 215l70 -60q-6 -17 -8 -27.5t-2 -19.5q0 -48 58.5 -77t160.5 -29q93 0 146 33.5t53 91.5q0 85 -190 143q-50 15 -79 25q-166 55 -234.5 121.5t-68.5 169.5q0 136 111.5 213t310.5 77q101 0 196 -26.5t181 -79.5l-131 -213l-72 29q2 6 3 13.5t1 22.5 q0 47 -50 75t-138 28q-81 0 -122.5 -23.5t-41.5 -68.5q0 -58 160 -106q68 -20 108 -34q172 -57 242 -128.5t70 -182.5q0 -147 -123.5 -239.5t-327.5 -92.5q-133 0 -240.5 37t-197.5 113z" />
<glyph unicode="t" horiz-adv-x="702" d="M41 840v133h104v291l238 79v-370h268v-133h-268v-541q0 -100 19 -129t67 -29q41 0 66 24t32 68h84v-213q-72 -25 -131 -37t-117 -12q-135 0 -196.5 78.5t-61.5 253.5v537h-104z" />
<glyph unicode="u" horiz-adv-x="1180" d="M68 903v70h317v-598q0 -133 42.5 -184.5t143.5 -51.5q64 0 124 32t98 85v543q0 65 -13.5 82.5t-52.5 21.5v70h324v-797q0 -46 14.5 -73t38.5 -27q2 0 5 1t5 1v-78h-305v100q-54 -64 -135 -96.5t-189 -32.5q-117 0 -199.5 45.5t-119.5 130.5q-18 42 -25.5 108.5 t-7.5 219.5v361q0 32 -14 46.5t-51 20.5z" />
<glyph unicode="v" horiz-adv-x="999" d="M-25 905v68h390l-1 -68q-26 -1 -41.5 -10.5t-15.5 -24.5q0 -9 4 -27t11 -36l219 -574l211 544q9 22 14.5 45.5t5.5 39.5q0 19 -18 31t-47 12h-7v68h324v-68q-30 -6 -50 -27.5t-46 -86.5l-307 -791h-256l-289 772q-4 10 -11 29q-38 104 -90 104z" />
<glyph unicode="w" horiz-adv-x="1450" d="M-29 905v68h394v-68q-29 0 -45.5 -9.5t-16.5 -25.5q0 -10 10 -41q4 -14 7 -23l172 -540l137 461l-35 98q-1 2 -2 5q-28 73 -78 75v68h393v-68q-28 0 -44.5 -9.5t-16.5 -25.5q0 -10 3.5 -26t10.5 -37l180 -541l160 510q12 38 15 54.5t4 31.5q0 20 -17.5 31.5t-46.5 11.5 h-6v68h324v-68q-31 0 -48.5 -17.5t-35.5 -76.5l-256 -811h-244l-160 479l-147 -479h-244l-289 825q-1 3 -2 7q-25 71 -76 73z" />
<glyph unicode="x" horiz-adv-x="1014" d="M-37 0v76h6q27 0 47.5 11.5t44.5 43.5l299 377l-229 319q-33 47 -57.5 59.5t-67.5 12.5v74h436v-74q-23 0 -36 -7t-13 -20q0 -9 5.5 -22t15.5 -27l123 -172l131 168q8 11 14 25.5t6 21.5q0 16 -12 24.5t-33 8.5h-12v74h360v-74q-32 0 -54 -10.5t-48 -42.5l-244 -307 l264 -377q39 -56 66.5 -73t66.5 -19v-70h-440v70h6q22 0 36.5 8.5t14.5 21.5q0 8 -5.5 19.5t-20.5 32.5l-166 239l-166 -221q-12 -16 -18.5 -30t-6.5 -27q0 -20 14.5 -31.5t39.5 -11.5h12v-70h-379z" />
<glyph unicode="y" horiz-adv-x="999" d="M-37 900v73h408v-74q-22 0 -34.5 -7.5t-12.5 -19.5q0 -10 13 -44q3 -8 5 -13l215 -520l197 524q6 17 10 31.5t4 19.5q0 13 -12 21t-33 8h-12v74h315v-73q-38 -3 -62.5 -26t-43.5 -73l-306 -840q-84 -234 -179.5 -323t-248.5 -89q-41 0 -83 9t-87 26v260h86q10 -54 39 -82 t76 -28q77 0 129.5 65t75.5 189l-359 839q-12 29 -38.5 48t-61.5 25z" />
<glyph unicode="z" horiz-adv-x="901" d="M37 0v158l473 645h-225q-63 0 -95 -21t-37 -65h-81v256h741v-154l-461 -639h189q86 0 137 30.5t63 88.5h82v-299h-786z" />
<glyph unicode="{" d="M178 602v68q159 15 216 76t57 223v200q0 200 84.5 273.5t314.5 73.5v-57q-128 -2 -175.5 -55t-47.5 -210v-137q0 -225 -56.5 -307.5t-208.5 -114.5q152 -32 208.5 -114.5t56.5 -307.5v-137q0 -157 47 -209t176 -54v-57h-10q-222 0 -305.5 74t-83.5 272v201 q0 161 -58 223.5t-215 75.5z" />
<glyph unicode="|" d="M424 -483v2048h178v-2048h-178z" />
<glyph unicode="}" d="M174 -187q129 2 176 54t47 209v137q0 227 56.5 308.5t208.5 113.5q-151 32 -208 113.5t-57 308.5v137q0 157 -47.5 210t-175.5 55v57h10q223 0 307 -74.5t84 -272.5v-200q0 -162 57 -223t216 -76v-68q-157 -13 -215 -74.5t-58 -224.5v-201q0 -197 -84 -271.5t-307 -74.5 h-10v57z" />
<glyph unicode="~" horiz-adv-x="1706" d="M178 434v187q106 72 202 107.5t185 35.5q62 0 125.5 -12t168.5 -48q13 -4 42 -15q164 -58 250 -58q85 0 177 37t202 116v-184q-103 -71 -197.5 -106t-183.5 -35q-44 0 -92.5 8.5t-98.5 26.5q-25 8 -76 26q-212 74 -319 74q-82 0 -174 -38t-211 -122z" />
<glyph unicode="&#xa1;" horiz-adv-x="616" d="M174 1307q0 65 45.5 111t110.5 46q66 0 111.5 -45.5t45.5 -111.5q0 -67 -45.5 -112.5t-111.5 -45.5q-65 0 -110.5 46t-45.5 112zM182 137q0 20 2 49.5t6 67.5l82 784h117l90 -786q6 -43 8 -67t2 -42q0 -86 -39 -129t-118 -43q-72 0 -111 43t-39 123z" />
<glyph unicode="&#xa2;" horiz-adv-x="1186" d="M131 786q0 206 137.5 340t347.5 134q28 0 66.5 -3.5t85.5 -9.5l74 199h162l-95 -248q30 -12 65.5 -36t80.5 -62l-146 -213l-75 41q8 22 11 34t3 19q0 52 -54 87.5t-135 35.5q-119 0 -193.5 -85t-74.5 -220q0 -167 91.5 -278t232.5 -111q69 0 113.5 28t64.5 84h84v-235 q-43 -21 -99.5 -30t-160.5 -9q-29 0 -64.5 4t-87.5 14l-108 -291h-162l127 344q-142 72 -216.5 191.5t-74.5 275.5z" />
<glyph unicode="&#xa3;" horiz-adv-x="1186" d="M12 203q0 111 65 174t179 63q35 0 71 -8t79 -26v14q0 61 -22.5 131t-78.5 178h-242l72 143h107q-17 46 -25 88t-8 84q0 174 118 288t300 114q130 0 233 -48.5t193 -152.5l-158 -209l-59 43q1 7 3 18q5 25 5 33q0 63 -57.5 108.5t-141.5 45.5q-89 0 -142.5 -57t-53.5 -152 q0 -49 12.5 -99t38.5 -104h303l-62 -143h-182q47 -96 66.5 -162.5t19.5 -126.5q0 -27 -4 -59t-12 -68q83 -53 144.5 -76.5t113.5 -23.5t80 25.5t28 72.5q0 35 -23.5 59.5t-58.5 24.5q-14 0 -28 -5.5t-37 -20.5l-68 104q37 30 73.5 43.5t76.5 13.5q99 0 164 -72.5t65 -185.5 q0 -131 -72 -214t-190 -83q-76 0 -145.5 33.5t-188.5 136.5q-61 -83 -139 -126.5t-168 -43.5q-107 0 -175.5 64.5t-68.5 163.5zM143 219q0 -46 27.5 -73t73.5 -27q56 0 93 34.5t60 108.5q-36 26 -70.5 37.5t-78.5 11.5q-47 0 -76 -25.5t-29 -66.5z" />
<glyph unicode="&#xa4;" horiz-adv-x="1241" d="M76 432l203 205q-40 53 -60 115.5t-20 132.5q0 69 20 131.5t60 116.5l-203 204l92 93l203 -203q55 41 117 61.5t133 20.5t134 -20.5t117 -61.5l203 203l94 -93l-204 -204q39 -54 59 -116.5t20 -131.5q0 -70 -20 -132.5t-59 -115.5l204 -205l-94 -92l-203 205 q-57 -42 -118 -62t-131 -20q-72 0 -135 20.5t-117 61.5l-203 -205zM332 885q0 -120 84.5 -204.5t206.5 -84.5q121 0 205.5 84.5t84.5 204.5q0 119 -85.5 205t-204.5 86q-120 0 -205.5 -86t-85.5 -205z" />
<glyph unicode="&#xa5;" horiz-adv-x="1280" d="M6 1413h432v-80q-29 -4 -45 -14.5t-16 -26.5q0 -13 4.5 -26.5t16.5 -35.5l280 -476l258 469q10 19 13 30t3 21q0 26 -18 40.5t-51 14.5h-13v84h402l-1 -84q-36 -3 -66.5 -28.5t-59.5 -77.5l-144 -256h218v-131h-293l-107 -191h400v-133h-439v-328q0 -47 20 -70t62 -26 v-88h-434v88q48 4 66 24.5t18 75.5v324h-457v133h412l-115 191h-297v131h215l-180 295q-22 35 -40 49.5t-43 23.5z" />
<glyph unicode="&#xa6;" d="M424 -350v758h178v-758h-178zM424 674v758h178v-758h-178z" />
<glyph unicode="&#xa7;" d="M92 651q0 110 78.5 180t208.5 76q-104 90 -146.5 157.5t-42.5 137.5q0 121 91 191.5t247 70.5q132 0 215.5 -60.5t83.5 -154.5q0 -60 -34.5 -96.5t-92.5 -36.5q-52 0 -87 30.5t-35 76.5q0 33 31.5 70t31.5 50q0 26 -34 46t-81 20q-69 0 -111 -37t-42 -96 q0 -53 36.5 -105.5t170.5 -166.5l178 -152q89 -75 131.5 -146t42.5 -145q0 -105 -78.5 -174t-207.5 -78q96 -81 142 -153t46 -144q0 -115 -98.5 -185.5t-262.5 -70.5q-136 0 -223.5 61t-87.5 154q0 61 37 97t98 36q49 0 82 -31.5t33 -78.5q0 -41 -32 -75t-32 -44 q0 -28 35 -45.5t92 -17.5q80 0 127 39t47 104q0 83 -187 244q-9 8 -14 12l-180 156q-89 77 -132.5 147t-43.5 137zM260 729q0 -49 32.5 -100.5t100.5 -110.5q108 -94 154 -121.5t82 -27.5q56 0 95.5 36.5t39.5 90.5q0 49 -36 104t-112 121q-91 81 -137 107t-88 26 q-55 0 -93 -36.5t-38 -88.5z" />
<glyph unicode="&#xa8;" d="M207 1274q0 45 33.5 78.5t78.5 33.5q47 0 80 -33t33 -79q0 -49 -32 -81t-81 -32q-48 0 -80 32t-32 81zM590 1274q0 45 34.5 78.5t80.5 33.5q45 0 77.5 -33t32.5 -79q0 -49 -31.5 -81t-78.5 -32q-49 0 -82 33t-33 80z" />
<glyph unicode="&#xa9;" horiz-adv-x="1683" d="M121 678q0 143 54 274.5t157 235.5q102 102 235 157.5t277 55.5q140 0 272.5 -55.5t233.5 -155.5q101 -102 157 -235.5t56 -276.5q0 -142 -55.5 -274t-157.5 -236q-101 -102 -231 -155.5t-277 -53.5q-145 0 -274.5 53t-233.5 156q-104 104 -158.5 234.5t-54.5 275.5z M219 678q0 -126 47.5 -239.5t136.5 -202.5q91 -91 201.5 -137t237.5 -46q126 0 238.5 47t199.5 136q88 89 136 204.5t48 237.5q0 124 -48 241.5t-136 204.5q-86 86 -200 133.5t-236 47.5q-126 0 -241 -48t-202 -137q-88 -90 -135 -203.5t-47 -238.5zM416 670 q0 184 119.5 309t295.5 125q80 0 154 -33t78 -33q28 0 41.5 14t19.5 48h41l2 -320h-47q-32 134 -102 203.5t-172 69.5q-116 0 -176 -94t-60 -275q0 -184 65 -281.5t189 -97.5q82 0 151 43.5t126 130.5l43 -26q-63 -108 -150 -160.5t-200 -52.5q-177 0 -297.5 124t-120.5 306 z" />
<glyph unicode="&#xaa;" horiz-adv-x="807" d="M35 950q0 106 102.5 167t394.5 116q-10 56 -50 82t-115 26q-81 0 -131.5 -20t-75.5 -61h-62v153q87 20 159 29.5t136 9.5q168 0 242 -56.5t74 -187.5v-344q0 -33 9.5 -45t35.5 -12v-55h-222v77q-44 -46 -102 -68t-135 -22q-118 0 -189 59t-71 152zM233 963 q0 -46 31 -73.5t82 -27.5q40 0 78.5 15.5t95.5 56.5v199q-156 -31 -221.5 -70t-65.5 -100z" />
<glyph unicode="&#xab;" d="M125 487l248 310h184l-252 -312l252 -311h-184zM471 487l250 310h182l-250 -312l250 -311h-182z" />
<glyph unicode="&#xac;" horiz-adv-x="1706" d="M254 696v166h1198v-502h-166v336h-1032z" />
<glyph unicode="&#xad;" horiz-adv-x="707" d="M88 410v217h528v-217h-528z" />
<glyph unicode="&#xae;" horiz-adv-x="1683" d="M121 678q0 143 54.5 275t156.5 235q102 102 235 157.5t277 55.5t279 -57t235 -160q98 -102 151.5 -235.5t53.5 -278.5q0 -138 -59.5 -272.5t-166.5 -239.5q-101 -100 -228 -149.5t-282 -49.5q-135 0 -264 54.5t-229 154.5q-105 104 -159 234t-54 276zM219 678 q0 -126 47.5 -239.5t136.5 -202.5q91 -91 201.5 -137t237.5 -46q126 0 238.5 47t199.5 136q89 90 136.5 204.5t47.5 237.5q0 122 -48.5 240t-135.5 206q-86 86 -200 133.5t-236 47.5q-126 0 -241 -48t-202 -137q-89 -90 -135.5 -203t-46.5 -239zM467 287v46q64 4 88.5 24.5 t24.5 72.5v520q0 52 -23.5 72t-89.5 25v49h399q145 0 232.5 -55t87.5 -142q0 -84 -65.5 -133t-217.5 -76q96 -25 147.5 -73t69.5 -127q6 -24 10 -67q9 -91 54 -91q29 0 44 34t15 99h49v-23q0 -85 -43 -129.5t-127 -44.5q-46 0 -80 14.5t-53 43.5q-24 39 -27 111.5t-8 93.5 q-16 74 -60.5 109.5t-121.5 35.5h-24v-246q0 -49 22.5 -69.5t85.5 -26.5v-47h-389zM748 723q14 -1 27 -1.5t26 -0.5q100 0 154.5 44t54.5 126q0 70 -46.5 114t-121.5 44q-47 0 -70.5 -17.5t-23.5 -50.5v-258z" />
<glyph unicode="&#xaf;" d="M242 1204v139h540v-139h-540z" />
<glyph unicode="&#xb0;" horiz-adv-x="674" d="M43 1163q0 125 86 211t209 86t209 -87t86 -210q0 -121 -87 -208t-210 -87t-208 85.5t-85 209.5zM152 1165q0 -76 54.5 -131t131.5 -55t130.5 54.5t53.5 131.5t-53.5 131t-130.5 54t-131.5 -54t-54.5 -131z" />
<glyph unicode="&#xb1;" horiz-adv-x="1706" d="M254 14v168h1198v-168h-1198zM254 707v165h514v334h170v-334h514v-165h-514v-334h-170v334h-514z" />
<glyph unicode="&#xb2;" horiz-adv-x="782" d="M35 569v4q0 87 50 166t151 152q28 20 93.5 59t98.5 64q51 36 72.5 73t21.5 87q0 70 -52 114.5t-136 44.5q-80 0 -130 -35.5t-67 -103.5h-76v166q69 39 143.5 58.5t155.5 19.5q158 0 252.5 -73.5t94.5 -195.5q0 -85 -46 -146t-169 -130q-14 -8 -41 -22 q-197 -105 -248 -187h336q65 0 87.5 15t30.5 59h60v-189h-682z" />
<glyph unicode="&#xb3;" horiz-adv-x="782" d="M33 580v159h69q9 -40 49 -60t115 -20q115 0 183.5 53.5t68.5 143.5q0 77 -61 116.5t-181 39.5q-6 0 -18 -1t-18 -1v100h59q87 0 135.5 32.5t48.5 88.5q0 50 -41.5 78t-115.5 28q-71 0 -116.5 -22.5t-62.5 -67.5h-69v129q74 32 138.5 47t123.5 15q150 0 237 -55t87 -148 q0 -60 -40.5 -101.5t-121.5 -64.5q101 -27 153 -81.5t52 -133.5q0 -131 -127 -215t-332 -84q-46 0 -98 6t-117 19z" />
<glyph unicode="&#xb4;" d="M336 1110l276 301q27 29 55 45.5t52 16.5q31 0 53.5 -23t22.5 -55q0 -28 -18 -49.5t-66 -51.5l-301 -184h-74z" />
<glyph unicode="&#xb5;" horiz-adv-x="1184" d="M-109 -319q0 52 69 282.5t108 409.5l108 512h207l-100 -467q-10 -46 -15.5 -82t-5.5 -57q0 -64 37 -101t102 -37q87 0 139 53.5t76 167.5l111 523h209l-113 -533l-3 -15q-15 -70 -15 -110q0 -42 22.5 -66t63.5 -24q40 0 71 21.5t58 68.5q9 17 23 49q25 60 51 60 q11 0 16.5 -7.5t5.5 -23.5q0 -28 -17 -85.5t-40 -100.5q-41 -72 -95.5 -108t-123.5 -36q-84 0 -129.5 55t-47.5 156q-42 -104 -109.5 -157.5t-156.5 -53.5q-99 0 -156.5 58t-68.5 168q-23 -124 -48 -315q-39 -306 -134 -306q-47 0 -73 26.5t-26 74.5z" />
<glyph unicode="&#xb6;" d="M55 1130q0 158 107 253.5t284 95.5h523v-99h-117v-1380h-129v1380h-168v-1380h-131v784q-168 6 -268.5 101t-100.5 245z" />
<glyph unicode="&#xb7;" horiz-adv-x="592" d="M135 711q0 68 47 114.5t115 46.5q69 0 115.5 -46t46.5 -115t-46.5 -115.5t-115.5 -46.5q-68 0 -115 46.5t-47 115.5z" />
<glyph unicode="&#xb8;" d="M268 -375l39 88q58 -36 118.5 -55.5t113.5 -19.5q57 0 83.5 21t26.5 67q0 42 -28 64t-82 22q-13 0 -28 -1t-32 -4v195h66v-114q24 3 40.5 4t28.5 2q80 0 129.5 -46.5t49.5 -119.5q0 -84 -59.5 -131.5t-166.5 -47.5q-59 0 -131 18.5t-168 57.5z" />
<glyph unicode="&#xb9;" horiz-adv-x="782" d="M143 1311q90 18 147 45.5t87 64.5h121v-725q0 -47 19 -58.5t89 -17.5v-51h-411v52q83 9 101.5 22.5t18.5 54.5v586q-43 -17 -85.5 -26t-85.5 -11z" />
<glyph unicode="&#xba;" horiz-adv-x="883" d="M47 1094q0 159 107.5 257.5t281.5 98.5q182 0 290 -97.5t108 -258.5q0 -159 -110.5 -261t-285.5 -102q-173 0 -282 101.5t-109 261.5zM252 1098q0 -121 50 -184.5t144 -63.5q89 0 136 66.5t47 191.5q0 105 -51 166t-138 61q-88 0 -138 -63t-50 -174z" />
<glyph unicode="&#xbb;" d="M123 174l250 311l-250 312h182l250 -310l-250 -313h-182zM469 174l252 311l-252 312h184l248 -310l-250 -313h-182z" />
<glyph unicode="&#xbc;" horiz-adv-x="1835" d="M139 1260v59q83 17 137 42.5t84 61.5h117v-678q0 -44 18.5 -54.5t84.5 -14.5v-49h-394v49q80 8 98.5 20.5t18.5 51.5v544q-45 -15 -86 -23t-78 -9zM406 -25l870 1471h154l-869 -1471h-155zM1114 186v97l445 514h124v-508h123v-103h-123v-84q0 -33 11 -42t46 -11l1 -49 h-275l1 49q34 2 44.5 11t10.5 42v84h-408zM1243 285h285l4 342z" />
<glyph unicode="&#xbd;" horiz-adv-x="1835" d="M139 1260v59q83 17 137 42.5t84 61.5h117v-678q0 -44 18.5 -54.5t84.5 -14.5v-49h-394v49q80 8 98.5 20.5t18.5 51.5v544q-45 -15 -86 -23t-78 -9zM406 -25l870 1471h154l-869 -1471h-155zM1122 0v4q0 82 48 156t145 141q26 18 88.5 54t93.5 59q50 35 71 70t21 81 q0 66 -50 107t-130 41q-76 0 -124.5 -33.5t-63.5 -95.5h-74v153q65 36 136 54t151 18q151 0 240 -68t89 -182q0 -80 -43 -136t-161 -120q-19 -10 -56 -30q-172 -92 -219 -164h320q64 0 84.5 13.5t28.5 53.5h57v-176h-652z" />
<glyph unicode="&#xbe;" horiz-adv-x="1837" d="M31 637v149h67q9 -39 46 -57t110 -18q110 0 176 49t66 133q0 72 -59 109.5t-173 37.5q-6 0 -18 -1t-17 -1v92h56q83 0 129.5 31t46.5 84q0 46 -40 72t-110 26q-68 0 -111 -21t-59 -62h-67v120q66 28 128.5 42t121.5 14q143 0 226 -50.5t83 -136.5q0 -57 -38.5 -96.5 t-115.5 -60.5q97 -25 146 -75.5t49 -125.5q0 -122 -121 -200.5t-315 -78.5q-44 0 -93 6t-114 19zM406 -25l870 1471h154l-869 -1471h-155zM1114 186v97l445 514h124v-508h123v-103h-123v-84q0 -33 11 -42t46 -11l1 -49h-275l1 49q34 2 44.5 11t10.5 42v84h-408zM1243 285 h285l4 342z" />
<glyph unicode="&#xbf;" horiz-adv-x="1124" d="M100 494q0 199 132.5 315.5t359.5 116.5h37v104h174v-348h-47q-194 0 -292.5 -62t-98.5 -184q0 -120 92 -198t235 -78q108 0 173 45.5t96 142.5h106v-325q-111 -27 -201 -39.5t-166 -12.5q-269 0 -434.5 146.5t-165.5 376.5zM555 1305q0 67 45.5 113t112.5 46t113 -46 t46 -113q0 -68 -46 -114t-113 -46t-112.5 46t-45.5 114z" />
<glyph unicode="&#xc0;" horiz-adv-x="1352" d="M-43 0v90q32 5 54.5 28.5t41.5 74.5l477 1239h287l469 -1233l6 -15q27 -74 82 -94v-90h-440v90q33 2 52.5 15.5t19.5 35.5q0 6 -2.5 16t-6.5 20l-127 345h-481l-110 -293q-9 -22 -14 -42t-5 -31q0 -30 19 -46.5t55 -19.5v-90h-377zM393 1862q0 32 22.5 55t53.5 23 q24 0 52 -16.5t55 -45.5l276 -301h-74l-301 184q-48 30 -66 51.5t-18 49.5zM451 711h350l-174 469z" />
<glyph unicode="&#xc1;" horiz-adv-x="1352" d="M-43 0v90q32 5 54.5 28.5t41.5 74.5l477 1239h287l469 -1233l6 -15q27 -74 82 -94v-90h-440v90q33 2 52.5 15.5t19.5 35.5q0 6 -2.5 16t-6.5 20l-127 345h-481l-110 -293q-9 -22 -14 -42t-5 -31q0 -30 19 -46.5t55 -19.5v-90h-377zM451 711h350l-174 469zM500 1577 l276 301q27 29 55 45.5t52 16.5q31 0 53.5 -23t22.5 -55q0 -28 -18 -49.5t-66 -51.5l-301 -184h-74z" />
<glyph unicode="&#xc2;" horiz-adv-x="1352" d="M-43 0v90q32 5 54.5 28.5t41.5 74.5l477 1239h287l469 -1233l6 -15q27 -74 82 -94v-90h-440v90q33 2 52.5 15.5t19.5 35.5q0 6 -2.5 16t-6.5 20l-127 345h-481l-110 -293q-9 -22 -14 -42t-5 -31q0 -30 19 -46.5t55 -19.5v-90h-377zM381 1577l227 350h134l229 -350h-74 l-221 197l-221 -197h-74zM451 711h350l-174 469z" />
<glyph unicode="&#xc3;" horiz-adv-x="1352" d="M-43 0v90q32 5 54.5 28.5t41.5 74.5l477 1239h287l469 -1233l6 -15q27 -74 82 -94v-90h-440v90q33 2 52.5 15.5t19.5 35.5q0 6 -2.5 16t-6.5 20l-127 345h-481l-110 -293q-9 -22 -14 -42t-5 -31q0 -30 19 -46.5t55 -19.5v-90h-377zM393 1620q22 113 71.5 171t125.5 58 q14 0 30.5 -2t32.5 -6l110 -29q12 -3 24.5 -4.5t25.5 -1.5q34 0 56 22t32 66h58q-22 -112 -71.5 -170.5t-123.5 -58.5q-11 0 -24 1.5t-27 4.5l-107 27q-27 6 -37.5 8t-15.5 2q-42 0 -64.5 -19t-37.5 -69h-58zM451 711h350l-174 469z" />
<glyph unicode="&#xc4;" horiz-adv-x="1352" d="M-43 0v90q32 5 54.5 28.5t41.5 74.5l477 1239h287l469 -1233l6 -15q27 -74 82 -94v-90h-440v90q33 2 52.5 15.5t19.5 35.5q0 6 -2.5 16t-6.5 20l-127 345h-481l-110 -293q-9 -22 -14 -42t-5 -31q0 -30 19 -46.5t55 -19.5v-90h-377zM371 1741q0 45 33.5 78.5t78.5 33.5 q47 0 80 -33t33 -79q0 -49 -32 -81t-81 -32q-48 0 -80 32t-32 81zM451 711h350l-174 469zM754 1741q0 45 34.5 78.5t80.5 33.5q45 0 77.5 -33t32.5 -79q0 -49 -31.5 -81t-78.5 -32q-49 0 -82 33t-33 80z" />
<glyph unicode="&#xc5;" horiz-adv-x="1352" d="M-43 0v90q32 5 54.5 28.5t41.5 74.5l477 1239h287l469 -1233l6 -15q27 -74 82 -94v-90h-440v90q33 2 52.5 15.5t19.5 35.5q0 6 -2.5 16t-6.5 20l-127 345h-481l-110 -293q-9 -22 -14 -42t-5 -31q0 -30 19 -46.5t55 -19.5v-90h-377zM436 1735q0 98 69.5 167.5t168.5 69.5 t167 -68.5t68 -168.5q0 -99 -68.5 -167.5t-166.5 -68.5q-99 0 -168.5 69t-69.5 167zM451 711h350l-174 469zM537 1737q0 -56 40.5 -97t96.5 -41q55 0 95 40.5t40 97.5t-39 96t-96 39q-56 0 -96.5 -40t-40.5 -95z" />
<glyph unicode="&#xc6;" horiz-adv-x="2073" d="M-109 0v90q45 4 98 88q4 6 7 10l805 1244h1143v-283h-89q-18 61 -49 83.5t-135 22.5h-444v-362h305q111 0 144.5 20t45.5 74h82v-354h-82q-8 54 -35 74t-102 20h-358v-553h452q120 0 164 27.5t60 99.5h94v-301h-1131l1 90q47 3 65 23t18 75v334h-516l-188 -299 q-15 -25 -22 -43.5t-7 -34.5q0 -21 17 -34t55 -21v-90h-398zM557 711h393v544h-41z" />
<glyph unicode="&#xc7;" horiz-adv-x="1436" d="M66 745q0 326 209 523.5t556 197.5q171 0 312 -53.5t270 -167.5l-264 -266l-80 57q11 28 16 46t5 30q0 66 -83 113t-206 47q-205 0 -326 -136.5t-121 -369.5q0 -274 167 -445t435 -171q114 0 179 38t77 113h101v-305q-113 -18 -206 -26.5t-173 -8.5q-400 0 -634 213 t-234 571zM579 -375l39 88q58 -36 118.5 -55.5t113.5 -19.5q57 0 83.5 21t26.5 67q0 42 -28 64t-82 22q-13 0 -28 -1t-32 -4v195h66v-114q24 3 40.5 4t28.5 2q80 0 129.5 -46.5t49.5 -119.5q0 -84 -59.5 -131.5t-166.5 -47.5q-59 0 -131 18.5t-168 57.5z" />
<glyph unicode="&#xc8;" horiz-adv-x="1305" d="M70 0v88q48 4 66 24.5t18 75.5v1055q0 56 -18 76t-66 24v89h1144v-283h-88q-18 61 -49.5 83.5t-136.5 22.5h-510v-362h373q110 0 143 20t45 74h82v-354h-82q-8 55 -34.5 74.5t-100.5 19.5h-426v-553h520q118 0 161 27t60 98h97v-299h-1198zM370 1862q0 32 22.5 55 t53.5 23q24 0 52 -16.5t55 -45.5l276 -301h-74l-301 184q-48 30 -66 51.5t-18 49.5z" />
<glyph unicode="&#xc9;" horiz-adv-x="1305" d="M70 0v88q48 4 66 24.5t18 75.5v1055q0 56 -18 76t-66 24v89h1144v-283h-88q-18 61 -49.5 83.5t-136.5 22.5h-510v-362h373q110 0 143 20t45 74h82v-354h-82q-8 55 -34.5 74.5t-100.5 19.5h-426v-553h520q118 0 161 27t60 98h97v-299h-1198zM477 1577l276 301 q27 29 55 45.5t52 16.5q31 0 53.5 -23t22.5 -55q0 -28 -18 -49.5t-66 -51.5l-301 -184h-74z" />
<glyph unicode="&#xca;" horiz-adv-x="1305" d="M70 0v88q48 4 66 24.5t18 75.5v1055q0 56 -18 76t-66 24v89h1144v-283h-88q-18 61 -49.5 83.5t-136.5 22.5h-510v-362h373q110 0 143 20t45 74h82v-354h-82q-8 55 -34.5 74.5t-100.5 19.5h-426v-553h520q118 0 161 27t60 98h97v-299h-1198zM358 1577l227 350h134 l229 -350h-74l-221 197l-221 -197h-74z" />
<glyph unicode="&#xcb;" horiz-adv-x="1305" d="M70 0v88q48 4 66 24.5t18 75.5v1055q0 56 -18 76t-66 24v89h1144v-283h-88q-18 61 -49.5 83.5t-136.5 22.5h-510v-362h373q110 0 143 20t45 74h82v-354h-82q-8 55 -34.5 74.5t-100.5 19.5h-426v-553h520q118 0 161 27t60 98h97v-299h-1198zM348 1741q0 45 33.5 78.5 t78.5 33.5q47 0 80 -33t33 -79q0 -49 -32 -81t-81 -32q-48 0 -80 32t-32 81zM731 1741q0 45 34.5 78.5t80.5 33.5q45 0 77.5 -33t32.5 -79q0 -49 -31.5 -81t-78.5 -32q-49 0 -82 33t-33 80z" />
<glyph unicode="&#xcc;" horiz-adv-x="584" d="M10 1862q0 32 22.5 55t53.5 23q24 0 52 -16.5t55 -45.5l276 -301h-74l-301 184q-48 30 -66 51.5t-18 49.5zM70 0v88q48 4 66 24.5t18 75.5v1055q0 56 -18 76t-66 24v89h446v-88q-45 -5 -63.5 -26.5t-18.5 -70.5v-1063q0 -48 18.5 -69.5t63.5 -26.5v-88h-446z" />
<glyph unicode="&#xcd;" horiz-adv-x="584" d="M70 0v88q48 4 66 24.5t18 75.5v1055q0 56 -18 76t-66 24v89h446v-88q-45 -5 -63.5 -26.5t-18.5 -70.5v-1063q0 -48 18.5 -69.5t63.5 -26.5v-88h-446zM117 1577l276 301q27 29 55 45.5t52 16.5q31 0 53.5 -23t22.5 -55q0 -28 -18 -49.5t-66 -51.5l-301 -184h-74z" />
<glyph unicode="&#xce;" horiz-adv-x="584" d="M-2 1577l227 350h134l229 -350h-74l-221 197l-221 -197h-74zM70 0v88q48 4 66 24.5t18 75.5v1055q0 56 -18 76t-66 24v89h446v-88q-45 -5 -63.5 -26.5t-18.5 -70.5v-1063q0 -48 18.5 -69.5t63.5 -26.5v-88h-446z" />
<glyph unicode="&#xcf;" horiz-adv-x="584" d="M-12 1741q0 45 33.5 78.5t78.5 33.5q47 0 80 -33t33 -79q0 -49 -32 -81t-81 -32q-48 0 -80 32t-32 81zM70 0v88q48 4 66 24.5t18 75.5v1055q0 56 -18 76t-66 24v89h446v-88q-45 -5 -63.5 -26.5t-18.5 -70.5v-1063q0 -48 18.5 -69.5t63.5 -26.5v-88h-446zM371 1741 q0 45 34.5 78.5t80.5 33.5q45 0 77.5 -33t32.5 -79q0 -49 -31.5 -81t-78.5 -32q-49 0 -82 33t-33 80z" />
<glyph unicode="&#xd0;" horiz-adv-x="1532" d="M-2 717v149h168v377q0 60 -17 77.5t-65 23.5v88h453q227 0 357.5 -31t238.5 -101q157 -102 247 -272t90 -366q0 -174 -71 -317.5t-199 -227.5q-95 -63 -214 -90t-331 -27h-571v88q47 5 64.5 23t17.5 77v529h-168zM449 184h206q255 0 392 126t137 360q0 270 -175.5 426.5 t-480.5 156.5q-33 0 -49.5 -0.5t-29.5 -1.5v-385h344v-149h-344v-533z" />
<glyph unicode="&#xd1;" horiz-adv-x="1456" d="M70 0v88h6q48 0 66 21.5t18 85.5v1093q0 22 -21.5 37.5t-58.5 20.5v86h401l617 -621v446q0 49 -17 66.5t-65 22.5v86h356v-86q-42 -2 -60 -25t-18 -78v-1046q0 -70 16.5 -87.5t61.5 -21.5v-88h-362v88q48 3 66 23t18 75v248l-727 723v-952q0 -66 17 -90.5t62 -26.5v-88 h-376zM462 1620q22 113 71.5 171t125.5 58q14 0 30.5 -2t32.5 -6l110 -29q12 -3 24.5 -4.5t25.5 -1.5q34 0 56 22t32 66h58q-22 -112 -71.5 -170.5t-123.5 -58.5q-11 0 -24 1.5t-27 4.5l-107 27q-27 6 -37.5 8t-15.5 2q-42 0 -64.5 -19t-37.5 -69h-58z" />
<glyph unicode="&#xd2;" horiz-adv-x="1663" d="M68 709q0 327 218 541t554 214q331 0 543 -210t212 -531q0 -336 -212 -546t-556 -210q-341 0 -550 206t-209 536zM365 713q0 -247 132 -404t334 -157q214 0 340.5 153t126.5 412q0 266 -121.5 415.5t-338.5 149.5q-211 0 -342 -157t-131 -412zM548 1862q0 32 22.5 55 t53.5 23q24 0 52 -16.5t55 -45.5l276 -301h-74l-301 184q-48 30 -66 51.5t-18 49.5z" />
<glyph unicode="&#xd3;" horiz-adv-x="1663" d="M68 709q0 327 218 541t554 214q331 0 543 -210t212 -531q0 -336 -212 -546t-556 -210q-341 0 -550 206t-209 536zM365 713q0 -247 132 -404t334 -157q214 0 340.5 153t126.5 412q0 266 -121.5 415.5t-338.5 149.5q-211 0 -342 -157t-131 -412zM655 1577l276 301 q27 29 55 45.5t52 16.5q31 0 53.5 -23t22.5 -55q0 -28 -18 -49.5t-66 -51.5l-301 -184h-74z" />
<glyph unicode="&#xd4;" horiz-adv-x="1663" d="M68 709q0 327 218 541t554 214q331 0 543 -210t212 -531q0 -336 -212 -546t-556 -210q-341 0 -550 206t-209 536zM365 713q0 -247 132 -404t334 -157q214 0 340.5 153t126.5 412q0 266 -121.5 415.5t-338.5 149.5q-211 0 -342 -157t-131 -412zM536 1577l227 350h134 l229 -350h-74l-221 197l-221 -197h-74z" />
<glyph unicode="&#xd5;" horiz-adv-x="1663" d="M68 709q0 327 218 541t554 214q331 0 543 -210t212 -531q0 -336 -212 -546t-556 -210q-341 0 -550 206t-209 536zM365 713q0 -247 132 -404t334 -157q214 0 340.5 153t126.5 412q0 266 -121.5 415.5t-338.5 149.5q-211 0 -342 -157t-131 -412zM548 1620q22 113 71.5 171 t125.5 58q14 0 30.5 -2t32.5 -6l110 -29q12 -3 24.5 -4.5t25.5 -1.5q34 0 56 22t32 66h58q-22 -112 -71.5 -170.5t-123.5 -58.5q-11 0 -24 1.5t-27 4.5l-107 27q-27 6 -37.5 8t-15.5 2q-42 0 -64.5 -19t-37.5 -69h-58z" />
<glyph unicode="&#xd6;" horiz-adv-x="1663" d="M68 709q0 327 218 541t554 214q331 0 543 -210t212 -531q0 -336 -212 -546t-556 -210q-341 0 -550 206t-209 536zM365 713q0 -247 132 -404t334 -157q214 0 340.5 153t126.5 412q0 266 -121.5 415.5t-338.5 149.5q-211 0 -342 -157t-131 -412zM526 1741q0 45 33.5 78.5 t78.5 33.5q47 0 80 -33t33 -79q0 -49 -32 -81t-81 -32q-48 0 -80 32t-32 81zM909 1741q0 45 34.5 78.5t80.5 33.5q45 0 77.5 -33t32.5 -79q0 -49 -31.5 -81t-78.5 -32q-49 0 -82 33t-33 80z" />
<glyph unicode="&#xd7;" horiz-adv-x="1706" d="M287 152l458 458l-458 461l116 117l459 -459l461 459l117 -117l-459 -461l459 -458l-117 -119l-461 461l-459 -461z" />
<glyph unicode="&#xd8;" horiz-adv-x="1663" d="M63 -33l203 223q-99 107 -148.5 237.5t-49.5 281.5q0 328 219 540.5t559 212.5q139 0 252.5 -34t201.5 -103l127 139h181l-211 -229q98 -111 148 -240t50 -272q0 -335 -212 -545.5t-554 -210.5q-148 0 -265 34t-197 101l-125 -135h-179zM365 709q0 -83 18.5 -162 t58.5 -164l707 776q-55 59 -132 89t-175 30q-217 0 -347 -155t-130 -414zM526 279q56 -61 139.5 -94t178.5 -33q202 0 328 155.5t126 409.5q0 105 -16 182t-51 152z" />
<glyph unicode="&#xd9;" horiz-adv-x="1446" d="M68 616q0 109 29.5 218t105.5 262q22 45 61 112q49 84 49 113q0 14 -15 20.5t-58 10.5v80h424v-80q-67 -29 -116.5 -85t-101.5 -167t-78 -219t-26 -215q0 -134 42.5 -234.5t125.5 -163.5q53 -40 126.5 -56.5t250.5 -16.5h145v1048q0 57 -17 76.5t-65 23.5v89h445v-88 q-43 -4 -63.5 -27.5t-20.5 -69.5v-1003q0 -96 17.5 -123.5t65.5 -32.5l1 -88h-568q-219 0 -313.5 19t-169.5 63q-138 81 -207 215t-69 319zM528 1862q0 32 22.5 55t53.5 23q24 0 52 -16.5t55 -45.5l276 -301h-74l-301 184q-48 30 -66 51.5t-18 49.5z" />
<glyph unicode="&#xda;" horiz-adv-x="1446" d="M68 616q0 109 29.5 218t105.5 262q22 45 61 112q49 84 49 113q0 14 -15 20.5t-58 10.5v80h424v-80q-67 -29 -116.5 -85t-101.5 -167t-78 -219t-26 -215q0 -134 42.5 -234.5t125.5 -163.5q53 -40 126.5 -56.5t250.5 -16.5h145v1048q0 57 -17 76.5t-65 23.5v89h445v-88 q-43 -4 -63.5 -27.5t-20.5 -69.5v-1003q0 -96 17.5 -123.5t65.5 -32.5l1 -88h-568q-219 0 -313.5 19t-169.5 63q-138 81 -207 215t-69 319zM635 1577l276 301q27 29 55 45.5t52 16.5q31 0 53.5 -23t22.5 -55q0 -28 -18 -49.5t-66 -51.5l-301 -184h-74z" />
<glyph unicode="&#xdb;" horiz-adv-x="1446" d="M68 616q0 109 29.5 218t105.5 262q22 45 61 112q49 84 49 113q0 14 -15 20.5t-58 10.5v80h424v-80q-67 -29 -116.5 -85t-101.5 -167t-78 -219t-26 -215q0 -134 42.5 -234.5t125.5 -163.5q53 -40 126.5 -56.5t250.5 -16.5h145v1048q0 57 -17 76.5t-65 23.5v89h445v-88 q-43 -4 -63.5 -27.5t-20.5 -69.5v-1003q0 -96 17.5 -123.5t65.5 -32.5l1 -88h-568q-219 0 -313.5 19t-169.5 63q-138 81 -207 215t-69 319zM516 1577l227 350h134l229 -350h-74l-221 197l-221 -197h-74z" />
<glyph unicode="&#xdc;" horiz-adv-x="1446" d="M68 616q0 109 29.5 218t105.5 262q22 45 61 112q49 84 49 113q0 14 -15 20.5t-58 10.5v80h424v-80q-67 -29 -116.5 -85t-101.5 -167t-78 -219t-26 -215q0 -134 42.5 -234.5t125.5 -163.5q53 -40 126.5 -56.5t250.5 -16.5h145v1048q0 57 -17 76.5t-65 23.5v89h445v-88 q-43 -4 -63.5 -27.5t-20.5 -69.5v-1003q0 -96 17.5 -123.5t65.5 -32.5l1 -88h-568q-219 0 -313.5 19t-169.5 63q-138 81 -207 215t-69 319zM506 1741q0 45 33.5 78.5t78.5 33.5q47 0 80 -33t33 -79q0 -49 -32 -81t-81 -32q-48 0 -80 32t-32 81zM889 1741q0 45 34.5 78.5 t80.5 33.5q45 0 77.5 -33t32.5 -79q0 -49 -31.5 -81t-78.5 -32q-49 0 -82 33t-33 80z" />
<glyph unicode="&#xdd;" horiz-adv-x="1171" d="M-37 1348v84h440v-84q-29 -2 -45 -11.5t-16 -25.5q0 -13 5 -27t18 -35l270 -463l250 455q8 17 12 30t4 23q0 26 -18.5 40t-51.5 14h-12v84h410v-84q-39 -4 -69 -29t-58 -76l-367 -665v-394q0 -47 20.5 -70t63.5 -26v-88h-434v88q48 4 66 24.5t18 75.5v381l-422 711 q-19 33 -37.5 47t-46.5 21zM410 1577l276 301q27 29 55 45.5t52 16.5q31 0 53.5 -23t22.5 -55q0 -28 -18 -49.5t-66 -51.5l-301 -184h-74z" />
<glyph unicode="&#xde;" horiz-adv-x="1237" d="M70 0v88q48 4 66 24.5t18 75.5v1055q0 56 -18 76t-66 24v89h446v-88q-44 -4 -64 -23t-20 -57v-17h246q137 0 213 -16.5t137 -54.5q85 -55 131.5 -142t46.5 -192q0 -228 -175 -370t-599 -251v-18q0 -63 18 -87t66 -28v-88h-446zM432 397q275 97 388.5 194.5t113.5 231.5 q0 135 -79.5 195.5t-262.5 60.5h-160v-682z" />
<glyph unicode="&#xdf;" horiz-adv-x="1276" d="M-283 -231l29 125q46 -9 70 -12t41 -3q91 0 159.5 45.5t96.5 124.5q13 38 18.5 88t5.5 150v88v467h-151l32 131h135q4 229 137 360t359 131q186 0 297 -87t111 -230q0 -94 -60 -156.5t-213 -122.5v-20q231 -61 336 -161.5t105 -258.5q0 -194 -161 -326.5t-402 -132.5 q-63 0 -124.5 11t-121.5 32l45 131q42 -14 79.5 -21t73.5 -7q146 0 243 83.5t97 211.5q0 86 -50.5 148.5t-160.5 109.5q-18 8 -53 22q-180 74 -180 148q0 71 111 115q14 5 21 8q103 42 141 84.5t38 111.5q0 72 -50 114t-136 42q-130 0 -188 -83.5t-58 -275.5v-589 q0 -321 -118.5 -472t-368.5 -151q-40 0 -85 6.5t-100 20.5z" />
<glyph unicode="&#xe0;" horiz-adv-x="1075" d="M45 285q0 150 137.5 237.5t526.5 165.5q-14 80 -68 118t-154 38q-106 0 -173.5 -29.5t-100.5 -89.5h-82v219q115 28 211 41.5t182 13.5q225 0 322.5 -80t97.5 -268v-491q0 -45 13 -62.5t48 -19.5l1 -78h-297v111q-61 -67 -137.5 -98t-178.5 -31q-156 0 -252 84t-96 219z M256 1395q0 32 22.5 55t53.5 23q24 0 52 -16.5t55 -45.5l276 -301h-74l-301 184q-48 30 -66 51.5t-18 49.5zM311 301q0 -65 41 -104t109 -39q52 0 103 22t128 80v283q-209 -44 -295 -99.5t-86 -142.5z" />
<glyph unicode="&#xe1;" horiz-adv-x="1075" d="M45 285q0 150 137.5 237.5t526.5 165.5q-14 80 -68 118t-154 38q-106 0 -173.5 -29.5t-100.5 -89.5h-82v219q115 28 211 41.5t182 13.5q225 0 322.5 -80t97.5 -268v-491q0 -45 13 -62.5t48 -19.5l1 -78h-297v111q-61 -67 -137.5 -98t-178.5 -31q-156 0 -252 84t-96 219z M311 301q0 -65 41 -104t109 -39q52 0 103 22t128 80v283q-209 -44 -295 -99.5t-86 -142.5zM363 1110l276 301q27 29 55 45.5t52 16.5q31 0 53.5 -23t22.5 -55q0 -28 -18 -49.5t-66 -51.5l-301 -184h-74z" />
<glyph unicode="&#xe2;" horiz-adv-x="1075" d="M45 285q0 150 137.5 237.5t526.5 165.5q-14 80 -68 118t-154 38q-106 0 -173.5 -29.5t-100.5 -89.5h-82v219q115 28 211 41.5t182 13.5q225 0 322.5 -80t97.5 -268v-491q0 -45 13 -62.5t48 -19.5l1 -78h-297v111q-61 -67 -137.5 -98t-178.5 -31q-156 0 -252 84t-96 219z M244 1110l227 350h134l229 -350h-74l-221 197l-221 -197h-74zM311 301q0 -65 41 -104t109 -39q52 0 103 22t128 80v283q-209 -44 -295 -99.5t-86 -142.5z" />
<glyph unicode="&#xe3;" horiz-adv-x="1075" d="M45 285q0 150 137.5 237.5t526.5 165.5q-14 80 -68 118t-154 38q-106 0 -173.5 -29.5t-100.5 -89.5h-82v219q115 28 211 41.5t182 13.5q225 0 322.5 -80t97.5 -268v-491q0 -45 13 -62.5t48 -19.5l1 -78h-297v111q-61 -67 -137.5 -98t-178.5 -31q-156 0 -252 84t-96 219z M256 1153q22 113 71.5 171t125.5 58q14 0 30.5 -2t32.5 -6l110 -29q12 -3 24.5 -4.5t25.5 -1.5q34 0 56 22t32 66h58q-22 -112 -71.5 -170.5t-123.5 -58.5q-11 0 -24 1.5t-27 4.5l-107 27q-27 6 -37.5 8t-15.5 2q-42 0 -64.5 -19t-37.5 -69h-58zM311 301q0 -65 41 -104 t109 -39q52 0 103 22t128 80v283q-209 -44 -295 -99.5t-86 -142.5z" />
<glyph unicode="&#xe4;" horiz-adv-x="1075" d="M45 285q0 150 137.5 237.5t526.5 165.5q-14 80 -68 118t-154 38q-106 0 -173.5 -29.5t-100.5 -89.5h-82v219q115 28 211 41.5t182 13.5q225 0 322.5 -80t97.5 -268v-491q0 -45 13 -62.5t48 -19.5l1 -78h-297v111q-61 -67 -137.5 -98t-178.5 -31q-156 0 -252 84t-96 219z M234 1274q0 45 33.5 78.5t78.5 33.5q47 0 80 -33t33 -79q0 -49 -32 -81t-81 -32q-48 0 -80 32t-32 81zM311 301q0 -65 41 -104t109 -39q52 0 103 22t128 80v283q-209 -44 -295 -99.5t-86 -142.5zM617 1274q0 45 34.5 78.5t80.5 33.5q45 0 77.5 -33t32.5 -79q0 -49 -31.5 -81 t-78.5 -32q-49 0 -82 33t-33 80z" />
<glyph unicode="&#xe5;" horiz-adv-x="1075" d="M45 285q0 150 137.5 237.5t526.5 165.5q-14 80 -68 118t-154 38q-106 0 -173.5 -29.5t-100.5 -89.5h-82v219q115 28 211 41.5t182 13.5q225 0 322.5 -80t97.5 -268v-491q0 -45 13 -62.5t48 -19.5l1 -78h-297v111q-61 -67 -137.5 -98t-178.5 -31q-156 0 -252 84t-96 219z M281 1300q0 99 68.5 167.5t166.5 68.5q100 0 169 -68t69 -168q0 -98 -70 -167.5t-168 -69.5t-166.5 69.5t-68.5 167.5zM313 299q0 -65 40 -103t108 -38q52 0 103 22t128 80v285q-231 -54 -305 -105t-74 -141zM381 1300q0 -55 40 -96t95 -41q56 0 96.5 40.5t40.5 96.5 q0 57 -40 96.5t-97 39.5q-55 0 -95 -40t-40 -96z" />
<glyph unicode="&#xe6;" horiz-adv-x="1688" d="M47 287q0 177 158.5 262t494.5 88v6q0 99 -57 149t-170 50q-98 0 -161 -27.5t-99 -85.5h-78v217q99 26 195.5 38.5t195.5 12.5q127 0 208.5 -23.5t133.5 -74.5q71 52 138.5 75t146.5 23q204 0 328 -132t139 -365l-678 -1q5 -168 90 -263t232 -95q97 0 161.5 38.5 t92.5 113.5h75v-244q-90 -40 -178.5 -59t-183.5 -19q-149 0 -256.5 43.5t-200.5 139.5q-108 -100 -196 -141.5t-185 -41.5q-154 0 -250 89.5t-96 226.5zM303 291q0 -68 40 -109t106 -41q110 0 179 96.5t74 262.5q-183 -2 -291 -59t-108 -150zM958 639h375q-3 93 -47 140.5 t-127 47.5q-87 0 -140 -49.5t-61 -138.5z" />
<glyph unicode="&#xe7;" horiz-adv-x="1014" d="M63 516q0 216 147 349.5t388 133.5q130 0 233 -41t189 -127l-172 -198l-65 54q4 14 6.5 25.5t3.5 20.5q0 49 -51 80t-134 31q-127 0 -202.5 -89t-75.5 -239q0 -167 92 -266.5t248 -99.5q74 0 121 27t69 83h76v-260q-73 -16 -132 -23.5t-114 -7.5q-279 0 -453 154.5 t-174 392.5zM354 -375l39 88q58 -36 118.5 -55.5t113.5 -19.5q57 0 83.5 21t26.5 67q0 42 -28 64t-82 22q-13 0 -28 -1t-32 -4v195h66v-114q24 3 40.5 4t28.5 2q80 0 129.5 -46.5t49.5 -119.5q0 -84 -59.5 -131.5t-166.5 -47.5q-59 0 -131 18.5t-168 57.5z" />
<glyph unicode="&#xe8;" horiz-adv-x="1075" d="M63 498q0 216 137 357.5t345 141.5q203 0 327 -132.5t138 -364.5l-678 -1q4 -166 90 -262t231 -96q97 0 161 38t93 112h74v-242q-92 -40 -178 -59t-180 -19q-262 0 -411 141t-149 386zM256 1395q0 32 22.5 55t53.5 23q24 0 52 -16.5t55 -45.5l276 -301h-74l-301 184 q-48 30 -66 51.5t-18 49.5zM348 639h374q-2 92 -46.5 140t-126.5 48q-87 0 -141 -50t-60 -138z" />
<glyph unicode="&#xe9;" horiz-adv-x="1075" d="M63 498q0 216 137 357.5t345 141.5q203 0 327 -132.5t138 -364.5l-678 -1q4 -166 90 -262t231 -96q97 0 161 38t93 112h74v-242q-92 -40 -178 -59t-180 -19q-262 0 -411 141t-149 386zM348 639h374q-2 92 -46.5 140t-126.5 48q-87 0 -141 -50t-60 -138zM363 1110l276 301 q27 29 55 45.5t52 16.5q31 0 53.5 -23t22.5 -55q0 -28 -18 -49.5t-66 -51.5l-301 -184h-74z" />
<glyph unicode="&#xea;" horiz-adv-x="1075" d="M63 498q0 216 137 357.5t345 141.5q203 0 327 -132.5t138 -364.5l-678 -1q4 -166 90 -262t231 -96q97 0 161 38t93 112h74v-242q-92 -40 -178 -59t-180 -19q-262 0 -411 141t-149 386zM244 1110l227 350h134l229 -350h-74l-221 197l-221 -197h-74zM348 639h374 q-2 92 -46.5 140t-126.5 48q-87 0 -141 -50t-60 -138z" />
<glyph unicode="&#xeb;" horiz-adv-x="1075" d="M63 498q0 216 137 357.5t345 141.5q203 0 327 -132.5t138 -364.5l-678 -1q4 -166 90 -262t231 -96q97 0 161 38t93 112h74v-242q-92 -40 -178 -59t-180 -19q-262 0 -411 141t-149 386zM234 1274q0 45 33.5 78.5t78.5 33.5q47 0 80 -33t33 -79q0 -49 -32 -81t-81 -32 q-48 0 -80 32t-32 81zM348 639h374q-2 92 -46.5 140t-126.5 48q-87 0 -141 -50t-60 -138zM617 1274q0 45 34.5 78.5t80.5 33.5q45 0 77.5 -33t32.5 -79q0 -49 -31.5 -81t-78.5 -32q-49 0 -82 33t-33 80z" />
<glyph unicode="&#xec;" horiz-adv-x="526" d="M-35 1395q0 32 22.5 55t53.5 23q24 0 52 -16.5t55 -45.5l276 -301h-74l-301 184q-48 30 -66 51.5t-18 49.5zM70 0v72q37 6 51 24.5t14 81.5v12v635q0 41 -14.5 55.5t-50.5 14.5v78h321v-797q0 -69 13.5 -85t49.5 -19l1 -72h-385z" />
<glyph unicode="&#xed;" horiz-adv-x="526" d="M70 0v72q37 6 51 24.5t14 81.5v12v635q0 41 -14.5 55.5t-50.5 14.5v78h321v-797q0 -69 13.5 -85t49.5 -19l1 -72h-385zM72 1110l276 301q27 29 55 45.5t52 16.5q31 0 53.5 -23t22.5 -55q0 -28 -18 -49.5t-66 -51.5l-301 -184h-74z" />
<glyph unicode="&#xee;" horiz-adv-x="526" d="M-47 1110l227 350h134l229 -350h-74l-221 197l-221 -197h-74zM70 0v72q37 6 51 24.5t14 81.5v12v635q0 41 -14.5 55.5t-50.5 14.5v78h321v-797q0 -69 13.5 -85t49.5 -19l1 -72h-385z" />
<glyph unicode="&#xef;" horiz-adv-x="526" d="M-57 1274q0 45 33.5 78.5t78.5 33.5q47 0 80 -33t33 -79q0 -49 -32 -81t-81 -32q-48 0 -80 32t-32 81zM70 0v72q37 6 51 24.5t14 81.5v12v635q0 41 -14.5 55.5t-50.5 14.5v78h321v-797q0 -69 13.5 -85t49.5 -19l1 -72h-385zM326 1274q0 45 34.5 78.5t80.5 33.5 q45 0 77.5 -33t32.5 -79q0 -49 -31.5 -81t-78.5 -32q-49 0 -82 33t-33 80z" />
<glyph unicode="&#xf0;" horiz-adv-x="1176" d="M61 489q0 227 144 367.5t377 140.5q40 0 74.5 -4t66.5 -12l-17 34q-41 84 -69 134l-281 -80l-28 107l245 73q-43 71 -72.5 91t-78.5 20v72h268l86 -121l201 57l33 -106l-172 -52q147 -232 210.5 -396t63.5 -306q0 -243 -145 -390t-383 -147q-232 0 -377.5 145.5 t-145.5 372.5zM336 498q0 -173 67 -265t193 -92q118 0 180 94.5t62 276.5q0 152 -67.5 241t-184.5 89t-183.5 -91.5t-66.5 -252.5z" />
<glyph unicode="&#xf1;" horiz-adv-x="1180" d="M70 0v70q31 4 47 21.5t16 47.5v692q0 41 -13 53.5t-50 14.5v74h303v-96q59 59 141 89.5t182 30.5q186 0 270.5 -96t84.5 -313v-457q0 -27 14.5 -41t48.5 -20v-70h-381v70h4q28 0 44 19t16 52v525q0 74 -49 119.5t-130 45.5q-70 0 -130 -30.5t-97 -85.5v-553q0 -58 13 -73 t50 -19l1 -70h-385zM307 1153q22 113 71.5 171t125.5 58q14 0 30.5 -2t32.5 -6l110 -29q12 -3 24.5 -4.5t25.5 -1.5q34 0 56 22t32 66h58q-22 -112 -71.5 -170.5t-123.5 -58.5q-11 0 -24 1.5t-27 4.5l-107 27q-27 6 -37.5 8t-15.5 2q-42 0 -64.5 -19t-37.5 -69h-58z" />
<glyph unicode="&#xf2;" horiz-adv-x="1176" d="M61 489q0 226 144.5 367t376.5 141q242 0 386 -139t144 -369q0 -227 -147.5 -372.5t-380.5 -145.5t-378 145t-145 373zM305 1395q0 32 22.5 55t53.5 23q24 0 52 -16.5t55 -45.5l276 -301h-74l-301 184q-48 30 -66 51.5t-18 49.5zM336 494q0 -172 67 -262.5t193 -90.5 q118 0 180 94.5t62 274.5q0 150 -67.5 237t-184.5 87t-183.5 -90.5t-66.5 -249.5z" />
<glyph unicode="&#xf3;" horiz-adv-x="1176" d="M61 489q0 226 144.5 367t376.5 141q242 0 386 -139t144 -369q0 -227 -147.5 -372.5t-380.5 -145.5t-378 145t-145 373zM336 494q0 -172 67 -262.5t193 -90.5q118 0 180 94.5t62 274.5q0 150 -67.5 237t-184.5 87t-183.5 -90.5t-66.5 -249.5zM412 1110l276 301 q27 29 55 45.5t52 16.5q31 0 53.5 -23t22.5 -55q0 -28 -18 -49.5t-66 -51.5l-301 -184h-74z" />
<glyph unicode="&#xf4;" horiz-adv-x="1176" d="M61 489q0 226 144.5 367t376.5 141q242 0 386 -139t144 -369q0 -227 -147.5 -372.5t-380.5 -145.5t-378 145t-145 373zM293 1110l227 350h134l229 -350h-74l-221 197l-221 -197h-74zM336 494q0 -172 67 -262.5t193 -90.5q118 0 180 94.5t62 274.5q0 150 -67.5 237 t-184.5 87t-183.5 -90.5t-66.5 -249.5z" />
<glyph unicode="&#xf5;" horiz-adv-x="1176" d="M61 489q0 226 144.5 367t376.5 141q242 0 386 -139t144 -369q0 -227 -147.5 -372.5t-380.5 -145.5t-378 145t-145 373zM305 1153q22 113 71.5 171t125.5 58q14 0 30.5 -2t32.5 -6l110 -29q12 -3 24.5 -4.5t25.5 -1.5q34 0 56 22t32 66h58q-22 -112 -71.5 -170.5 t-123.5 -58.5q-11 0 -24 1.5t-27 4.5l-107 27q-27 6 -37.5 8t-15.5 2q-42 0 -64.5 -19t-37.5 -69h-58zM336 494q0 -172 67 -262.5t193 -90.5q118 0 180 94.5t62 274.5q0 150 -67.5 237t-184.5 87t-183.5 -90.5t-66.5 -249.5z" />
<glyph unicode="&#xf6;" horiz-adv-x="1176" d="M61 489q0 226 144.5 367t376.5 141q242 0 386 -139t144 -369q0 -227 -147.5 -372.5t-380.5 -145.5t-378 145t-145 373zM283 1274q0 45 33.5 78.5t78.5 33.5q47 0 80 -33t33 -79q0 -49 -32 -81t-81 -32q-48 0 -80 32t-32 81zM336 494q0 -172 67 -262.5t193 -90.5 q118 0 180 94.5t62 274.5q0 150 -67.5 237t-184.5 87t-183.5 -90.5t-66.5 -249.5zM666 1274q0 45 34.5 78.5t80.5 33.5q45 0 77.5 -33t32.5 -79q0 -49 -31.5 -81t-78.5 -32q-49 0 -82 33t-33 80z" />
<glyph unicode="&#xf7;" horiz-adv-x="1706" d="M254 528v166h1198v-166h-1198zM717 229q0 57 40.5 97.5t96.5 40.5q57 0 97 -40.5t40 -97.5q0 -56 -39.5 -95.5t-97.5 -39.5t-97.5 39t-39.5 96zM717 989q0 57 40.5 98t96.5 41q57 0 97 -41t40 -98q0 -56 -39.5 -95.5t-97.5 -39.5t-97.5 39t-39.5 96z" />
<glyph unicode="&#xf8;" horiz-adv-x="1176" d="M-12 -45l186 203q-58 76 -85.5 156t-27.5 173q0 228 144 369t377 141q98 0 170 -17.5t135 -55.5l86 92h188l-170 -185q63 -81 92 -163.5t29 -178.5q0 -225 -147.5 -370.5t-380.5 -145.5q-92 0 -168 22t-142 68l-100 -108h-186zM336 506q0 -35 4.5 -74t14.5 -81l393 423 q-42 32 -79.5 46t-80.5 14q-116 0 -184 -88.5t-68 -239.5zM418 217q40 -40 77.5 -57t88.5 -17q125 0 189.5 88.5t64.5 257.5q0 41 -5.5 80.5t-15.5 77.5z" />
<glyph unicode="&#xf9;" horiz-adv-x="1180" d="M68 903v70h317v-598q0 -133 42.5 -184.5t143.5 -51.5q64 0 124 32t98 85v543q0 65 -13.5 82.5t-52.5 21.5v70h324v-797q0 -46 14.5 -73t38.5 -27q2 0 5 1t5 1v-78h-305v100q-54 -64 -135 -96.5t-189 -32.5q-117 0 -199.5 45.5t-119.5 130.5q-18 42 -25.5 108.5 t-7.5 219.5v361q0 32 -14 46.5t-51 20.5zM295 1395q0 32 22.5 55t53.5 23q24 0 52 -16.5t55 -45.5l276 -301h-74l-301 184q-48 30 -66 51.5t-18 49.5z" />
<glyph unicode="&#xfa;" horiz-adv-x="1180" d="M68 903v70h317v-598q0 -133 42.5 -184.5t143.5 -51.5q64 0 124 32t98 85v543q0 65 -13.5 82.5t-52.5 21.5v70h324v-797q0 -46 14.5 -73t38.5 -27q2 0 5 1t5 1v-78h-305v100q-54 -64 -135 -96.5t-189 -32.5q-117 0 -199.5 45.5t-119.5 130.5q-18 42 -25.5 108.5 t-7.5 219.5v361q0 32 -14 46.5t-51 20.5zM402 1110l276 301q27 29 55 45.5t52 16.5q31 0 53.5 -23t22.5 -55q0 -28 -18 -49.5t-66 -51.5l-301 -184h-74z" />
<glyph unicode="&#xfb;" horiz-adv-x="1180" d="M68 903v70h317v-598q0 -133 42.5 -184.5t143.5 -51.5q64 0 124 32t98 85v543q0 65 -13.5 82.5t-52.5 21.5v70h324v-797q0 -46 14.5 -73t38.5 -27q2 0 5 1t5 1v-78h-305v100q-54 -64 -135 -96.5t-189 -32.5q-117 0 -199.5 45.5t-119.5 130.5q-18 42 -25.5 108.5 t-7.5 219.5v361q0 32 -14 46.5t-51 20.5zM283 1110l227 350h134l229 -350h-74l-221 197l-221 -197h-74z" />
<glyph unicode="&#xfc;" horiz-adv-x="1180" d="M68 903v70h317v-598q0 -133 42.5 -184.5t143.5 -51.5q64 0 124 32t98 85v543q0 65 -13.5 82.5t-52.5 21.5v70h324v-797q0 -46 14.5 -73t38.5 -27q2 0 5 1t5 1v-78h-305v100q-54 -64 -135 -96.5t-189 -32.5q-117 0 -199.5 45.5t-119.5 130.5q-18 42 -25.5 108.5 t-7.5 219.5v361q0 32 -14 46.5t-51 20.5zM273 1274q0 45 33.5 78.5t78.5 33.5q47 0 80 -33t33 -79q0 -49 -32 -81t-81 -32q-48 0 -80 32t-32 81zM656 1274q0 45 34.5 78.5t80.5 33.5q45 0 77.5 -33t32.5 -79q0 -49 -31.5 -81t-78.5 -32q-49 0 -82 33t-33 80z" />
<glyph unicode="&#xfd;" horiz-adv-x="999" d="M-37 900v73h408v-74q-22 0 -34.5 -7.5t-12.5 -19.5q0 -10 13 -44q3 -8 5 -13l215 -520l197 524q6 17 10 31.5t4 19.5q0 13 -12 21t-33 8h-12v74h315v-73q-38 -3 -62.5 -26t-43.5 -73l-306 -840q-84 -234 -179.5 -323t-248.5 -89q-41 0 -83 9t-87 26v260h86q10 -54 39 -82 t76 -28q77 0 129.5 65t75.5 189l-359 839q-12 29 -38.5 48t-61.5 25zM324 1110l276 301q27 29 55 45.5t52 16.5q31 0 53.5 -23t22.5 -55q0 -28 -18 -49.5t-66 -51.5l-301 -184h-74z" />
<glyph unicode="&#xfe;" horiz-adv-x="1190" d="M61 -451l1 72q35 5 50 24t15 60v35v1550q0 39 -14 53.5t-51 16.5l-1 72h314v-551q70 59 150.5 88.5t170.5 29.5q196 0 310 -124t114 -334q0 -275 -180 -421.5t-518 -146.5h-47v-233v-68q0 -21 17 -34.5t48 -16.5v-72h-379zM375 129h6q234 0 354.5 101t120.5 296 q0 143 -64.5 226.5t-175.5 83.5q-73 0 -134 -35.5t-107 -104.5v-567z" />
<glyph unicode="&#xff;" horiz-adv-x="999" d="M-37 900v73h408v-74q-22 0 -34.5 -7.5t-12.5 -19.5q0 -10 13 -44q3 -8 5 -13l215 -520l197 524q6 17 10 31.5t4 19.5q0 13 -12 21t-33 8h-12v74h315v-73q-38 -3 -62.5 -26t-43.5 -73l-306 -840q-84 -234 -179.5 -323t-248.5 -89q-41 0 -83 9t-87 26v260h86q10 -54 39 -82 t76 -28q77 0 129.5 65t75.5 189l-359 839q-12 29 -38.5 48t-61.5 25zM195 1274q0 45 33.5 78.5t78.5 33.5q47 0 80 -33t33 -79q0 -49 -32 -81t-81 -32q-48 0 -80 32t-32 81zM578 1274q0 45 34.5 78.5t80.5 33.5q45 0 77.5 -33t32.5 -79q0 -49 -31.5 -81t-78.5 -32 q-49 0 -82 33t-33 80z" />
<glyph unicode="&#x152;" horiz-adv-x="2384" d="M68 711q0 326 219.5 539.5t552.5 213.5q143 0 257.5 -34.5t202.5 -104.5v107h994v-283h-88q-18 61 -50 83.5t-137 22.5h-442v-362h305q111 0 144.5 20t46.5 74h81v-354h-81q-9 54 -36 74t-102 20h-358v-553h453q118 0 162 27.5t61 97.5h96v-299h-1049v109 q-89 -71 -207.5 -106.5t-265.5 -35.5q-339 0 -549 207t-210 537zM365 713q0 -246 132 -402.5t334 -156.5q214 0 340.5 152t126.5 411q0 266 -121.5 415.5t-338.5 149.5q-211 0 -342 -157t-131 -412z" />
<glyph unicode="&#x153;" horiz-adv-x="1849" d="M61 475q0 236 142.5 379t378.5 143q134 0 225.5 -34t165.5 -111q63 72 152.5 108.5t203.5 36.5q196 0 317 -131.5t136 -363.5h-678q6 -170 90 -264.5t229 -94.5q98 0 162.5 38t91.5 112h74v-244q-91 -40 -179 -59t-183 -19q-137 0 -238.5 38t-179.5 118 q-82 -80 -176 -118t-211 -38q-229 0 -376 143.5t-147 360.5zM336 494q0 -171 67 -261t193 -90q118 0 180 94t62 273q0 149 -68 236.5t-184 87.5q-117 0 -183.5 -90.5t-66.5 -249.5zM1106 641h386q-4 99 -50 146t-137 47q-86 0 -138.5 -51.5t-60.5 -141.5z" />
<glyph unicode="&#x178;" horiz-adv-x="1171" d="M-37 1348v84h440v-84q-29 -2 -45 -11.5t-16 -25.5q0 -13 5 -27t18 -35l270 -463l250 455q8 17 12 30t4 23q0 26 -18.5 40t-51.5 14h-12v84h410v-84q-39 -4 -69 -29t-58 -76l-367 -665v-394q0 -47 20.5 -70t63.5 -26v-88h-434v88q48 4 66 24.5t18 75.5v381l-422 711 q-19 33 -37.5 47t-46.5 21zM281 1741q0 45 33.5 78.5t78.5 33.5q47 0 80 -33t33 -79q0 -49 -32 -81t-81 -32q-48 0 -80 32t-32 81zM664 1741q0 45 34.5 78.5t80.5 33.5q45 0 77.5 -33t32.5 -79q0 -49 -31.5 -81t-78.5 -32q-49 0 -82 33t-33 80z" />
<glyph unicode="&#x2c6;" d="M217 1110l227 350h134l229 -350h-74l-221 197l-221 -197h-74z" />
<glyph unicode="&#x2dc;" d="M229 1153q22 113 71.5 171t125.5 58q14 0 30.5 -2t32.5 -6l110 -29q12 -3 24.5 -4.5t25.5 -1.5q34 0 56 22t32 66h58q-22 -112 -71.5 -170.5t-123.5 -58.5q-11 0 -24 1.5t-27 4.5l-107 27q-27 6 -37.5 8t-15.5 2q-42 0 -64.5 -19t-37.5 -69h-58z" />
<glyph unicode="&#x2000;" horiz-adv-x="986" />
<glyph unicode="&#x2001;" horiz-adv-x="1972" />
<glyph unicode="&#x2002;" horiz-adv-x="986" />
<glyph unicode="&#x2003;" horiz-adv-x="1972" />
<glyph unicode="&#x2004;" horiz-adv-x="657" />
<glyph unicode="&#x2005;" horiz-adv-x="493" />
<glyph unicode="&#x2006;" horiz-adv-x="328" />
<glyph unicode="&#x2007;" horiz-adv-x="328" />
<glyph unicode="&#x2008;" horiz-adv-x="246" />
<glyph unicode="&#x2009;" horiz-adv-x="394" />
<glyph unicode="&#x200a;" horiz-adv-x="109" />
<glyph unicode="&#x2010;" horiz-adv-x="707" d="M88 410v217h528v-217h-528z" />
<glyph unicode="&#x2011;" horiz-adv-x="707" d="M88 410v217h528v-217h-528z" />
<glyph unicode="&#x2012;" horiz-adv-x="707" d="M88 410v217h528v-217h-528z" />
<glyph unicode="&#x2013;" d="M0 420v194h1024v-194h-1024z" />
<glyph unicode="&#x2014;" horiz-adv-x="2048" d="M0 420v194h2048v-194h-2048z" />
<glyph unicode="&#x2018;" horiz-adv-x="494" d="M113 1108q0 79 46 164t148 192l78 -59q-57 -61 -88 -116.5t-31 -94.5q0 -8 0.5 -11t1.5 -5q7 1 14.5 1.5t20.5 0.5q59 0 92 -32.5t33 -88.5q0 -60 -43 -99.5t-109 -39.5q-73 0 -118 51.5t-45 136.5z" />
<glyph unicode="&#x2019;" horiz-adv-x="494" d="M72 1325q0 60 43 99.5t108 39.5q74 0 119 -51t45 -135q0 -79 -46 -164t-148 -192l-78 59q56 61 87 116.5t31 94.5q0 8 -0.5 11.5t-1.5 4.5q-14 -2 -22 -3t-14 -1q-58 0 -90.5 32.5t-32.5 88.5z" />
<glyph unicode="&#x201a;" horiz-adv-x="494" d="M72 117q0 60 43 99.5t108 39.5q74 0 119 -51t45 -135q0 -80 -46.5 -166.5t-147.5 -192.5l-78 60q56 60 87 116.5t31 96.5v10t-2 6q-14 -2 -21.5 -3t-14.5 -1q-58 0 -90.5 32t-32.5 89z" />
<glyph unicode="&#x201c;" horiz-adv-x="930" d="M113 1108q0 79 46 164t148 192l78 -59q-57 -61 -88 -116.5t-31 -94.5q0 -8 0.5 -11t1.5 -5q7 1 14.5 1.5t20.5 0.5q59 0 92 -32.5t33 -88.5q0 -60 -43 -99.5t-109 -39.5q-73 0 -118 51.5t-45 136.5zM549 1108q0 79 46 164t148 192l78 -59q-56 -61 -87.5 -116.5 t-31.5 -94.5q0 -8 1 -11.5t1 -4.5q7 1 14.5 1.5t20.5 0.5q59 0 92 -32.5t33 -88.5q0 -60 -43 -99.5t-108 -39.5q-74 0 -119 51.5t-45 136.5z" />
<glyph unicode="&#x201d;" horiz-adv-x="930" d="M72 1325q0 60 43 99.5t108 39.5q74 0 119 -51t45 -135q0 -79 -46 -164t-148 -192l-78 59q56 61 87 116.5t31 94.5q0 8 -0.5 11.5t-1.5 4.5q-14 -2 -22 -3t-14 -1q-58 0 -90.5 32.5t-32.5 88.5zM508 1325q0 60 43 99.5t108 39.5q74 0 119 -51t45 -135q0 -79 -46 -164 t-148 -192l-78 59q57 61 88 116.5t31 94.5q0 8 -0.5 11t-1.5 5q-15 -2 -23 -3t-14 -1q-58 0 -90.5 32.5t-32.5 88.5z" />
<glyph unicode="&#x201e;" horiz-adv-x="930" d="M72 117q0 60 43 99.5t108 39.5q74 0 119 -51t45 -135q0 -80 -46.5 -166.5t-147.5 -192.5l-78 60q56 60 87 116.5t31 96.5v10t-2 6q-14 -2 -21.5 -3t-14.5 -1q-58 0 -90.5 32t-32.5 89zM508 117q0 60 43 99.5t108 39.5q74 0 119 -51t45 -135q0 -80 -46.5 -166.5 t-147.5 -192.5l-78 60q56 60 87.5 116.5t31.5 96.5q0 7 -0.5 10t-1.5 6q-16 -3 -23 -3.5t-14 -0.5q-58 0 -90.5 32t-32.5 89z" />
<glyph unicode="&#x2022;" horiz-adv-x="1208" d="M307 762q0 123 87 209t210 86q122 0 208.5 -86.5t86.5 -208.5t-87.5 -209.5t-209.5 -87.5q-123 0 -209 87t-86 210z" />
<glyph unicode="&#x2026;" horiz-adv-x="2048" d="M158 129q0 69 46.5 115.5t114.5 46.5q70 0 116 -46.5t46 -115.5t-46 -115.5t-116 -46.5q-68 0 -114.5 47t-46.5 115zM840 129q0 69 46.5 115.5t114.5 46.5q70 0 116 -46.5t46 -115.5t-46 -115.5t-116 -46.5q-68 0 -114.5 47t-46.5 115zM1524 129q0 69 46.5 115.5 t114.5 46.5q70 0 116 -46.5t46 -115.5t-46 -115.5t-116 -46.5q-68 0 -114.5 47t-46.5 115z" />
<glyph unicode="&#x202f;" horiz-adv-x="394" />
<glyph unicode="&#x2039;" horiz-adv-x="682" d="M127 487l250 310h182l-250 -312l250 -311h-182z" />
<glyph unicode="&#x203a;" horiz-adv-x="682" d="M123 174l250 311l-250 312h182l250 -310l-250 -313h-182z" />
<glyph unicode="&#x205f;" horiz-adv-x="493" />
<glyph unicode="&#x2122;" horiz-adv-x="1683" d="M233 1260l11 188h448l10 -188h-30q-8 80 -40 116.5t-93 36.5h-11v-422q0 -23 10.5 -37t28.5 -16l31 -4v-29h-260v29l32 4q19 2 28.5 15.5t9.5 37.5v422h-15q-59 0 -91 -37.5t-40 -115.5h-29zM770 905v29l33 4q20 2 30.5 15t10.5 36v373q0 23 -11 37t-30 16l-33 2v31h199 l135 -381l137 381h189v-27l-28 -2q-19 -3 -29.5 -16.5t-10.5 -36.5v-375q0 -23 10.5 -36.5t30.5 -16.5l27 -4v-29h-246v29l30 4q20 2 29.5 15.5t9.5 37.5v375l-163 -463h-27l-170 469v-381q0 -24 10 -38t29 -15l35 -4v-29h-197z" />
<glyph unicode="&#xe000;" horiz-adv-x="975" d="M0 0v975h975v-975h-975z" />
</font>
</defs>
</svg>
